<svg width="36" height="11" viewBox="0 0 36 11" fill="none" xmlns="http://www.w3.org/2000/svg">
<path d="M4.07058 0H8.12427L12.1611 11H9.32349L8.58031 9.03792H3.58076L2.83758 11H0L4.07058 0ZM7.97226 7.15309L6.18188 2.19382H6.01298L4.18881 7.15309H7.97226Z" fill="#FF5977"/>
<path d="M13.6788 0H22.5463V2.07022H16.4151V4.49579H22.0902V6.30337H16.4151V8.92978H22.7152V11H13.6788V0Z" fill="#FF5977"/>
<path d="M24.5652 0H29.0749C30.4487 0 31.6592 0.231741 32.7064 0.695224C33.7536 1.14841 34.5643 1.79213 35.1386 2.6264C35.7129 3.45037 36 4.40824 36 5.5C36 6.59176 35.7129 7.55478 35.1386 8.38904C34.5643 9.21301 33.7536 9.85674 32.7064 10.3202C31.6592 10.7734 30.4487 11 29.0749 11H24.5652V0ZM29.0749 8.99157C29.8969 8.99157 30.6176 8.85253 31.2369 8.57444C31.8675 8.28605 32.3517 7.87921 32.6895 7.35393C33.0386 6.82865 33.2131 6.21067 33.2131 5.5C33.2131 4.79963 33.0386 4.1868 32.6895 3.66152C32.3517 3.13624 31.8675 2.7294 31.2369 2.44101C30.6176 2.15262 29.8969 2.00843 29.0749 2.00843H27.3015V8.99157H29.0749Z" fill="#FF5977"/>
</svg>
