<svg width="95" height="95" viewBox="0 0 95 95" fill="none" xmlns="http://www.w3.org/2000/svg">
<path fill-rule="evenodd" clip-rule="evenodd" d="M94.6805 41.9972C96.6411 58.8837 89.4707 75.2585 76.1677 85.3421C75.1227 86.1349 73.6332 85.9297 72.8406 84.8852C72.0481 83.8407 72.2527 82.3519 73.2977 81.5596C85.2742 72.4808 91.7267 57.7464 89.9615 42.5444C89.4626 38.2454 88.3404 34.1701 86.6971 30.3975L52.6442 64.435C51.2541 65.8237 49.3846 66.5526 47.4957 66.5304C45.5533 66.5526 43.6838 65.8238 42.2937 64.435L24.6016 46.7502C23.6742 45.8232 23.6742 44.3204 24.6016 43.3934C25.529 42.4664 27.0325 42.4664 27.9599 43.3934L45.6526 61.0775C46.1188 61.5434 46.7526 61.791 47.4957 61.7833C48.1852 61.791 48.819 61.5434 49.2852 61.0775L84.4353 25.9433C76.135 11.7371 59.9647 3.01668 42.5669 5.0391C19.1169 7.76455 2.31753 28.9734 5.03905 52.4163C7.27095 71.6026 22.0673 86.7689 40.9229 89.7118C41.3717 89.789 42.1732 89.9086 43.1903 90.0289C43.9945 90.1242 44.8023 90.2027 45.5926 90.2577C46.9013 90.3495 47.8872 91.4844 47.7953 92.7918C47.7042 94.0999 46.5687 95.0853 45.2601 94.9942C44.3904 94.9323 43.5082 94.8474 42.6322 94.7438C41.5253 94.6124 40.6438 94.4809 40.154 94.3968C19.2403 91.1339 2.80074 74.2848 0.321445 52.964C-2.70358 26.9164 15.9611 3.35066 42.0171 0.322379C60.9074 -1.87379 78.4976 7.32945 87.8965 22.4817L90.9057 19.4734C91.8331 18.5464 93.3372 18.5464 94.2646 19.4734C95.1914 20.4004 95.1914 21.9031 94.2646 22.8301L90.2787 26.8143C92.5281 31.4681 94.0497 36.5719 94.6793 41.9948L94.6805 41.9972Z" fill="#2E6DFE"/>
</svg>
