<svg width="27" height="35" viewBox="0 0 27 35" fill="none" xmlns="http://www.w3.org/2000/svg">
<path d="M21.4173 16.2402C23.2558 15.3182 24.4062 13.6945 24.1375 10.9895C23.7756 7.29283 20.5329 6.05324 16.4395 5.70023L16.4387 0.572632H13.2671L13.2662 5.56538C12.4318 5.56538 11.5811 5.58152 10.7343 5.59824L10.7336 0.573312L7.56486 0.573021L7.56426 5.69935C6.87752 5.71316 6.20311 5.72628 5.54459 5.72628V5.71112L1.16992 5.70937L1.17051 9.04234C1.17051 9.04234 3.51268 8.99898 3.4741 9.04108C4.75828 9.04195 5.17759 9.77598 5.29818 10.4096L5.29917 16.251V24.4562C5.24262 24.8539 5.00469 25.4892 4.10676 25.4904C4.14762 25.5258 1.79963 25.49 1.79963 25.49L1.17051 29.217H5.29719C6.06614 29.2179 6.82166 29.2297 7.56288 29.2355L7.56565 34.4211L10.7336 34.422L10.7327 29.2907C11.6043 29.3082 12.4456 29.3158 13.2673 29.3147L13.2664 34.422H16.4379L16.4397 29.245C21.7708 28.9436 25.5031 27.6217 25.9671 22.6937C26.3411 18.7262 24.444 16.9552 21.4173 16.2402ZM10.8101 9.26731C12.5988 9.26731 18.2244 8.70663 18.2252 12.3846C18.2244 15.9108 12.6006 15.4989 10.8101 15.4989V9.26731ZM10.8087 25.5157L10.8101 18.6448C12.9592 18.6442 19.7001 18.0361 19.7009 22.0787C19.7018 25.9555 12.9592 25.5141 10.8087 25.5157Z" fill="#FF810C"/>
</svg>
