<svg width="20" height="35" viewBox="0 0 20 35" fill="none" xmlns="http://www.w3.org/2000/svg">
<path d="M19.135 19.3431C18.5833 18.4322 17.8265 17.6593 16.924 17.0844C16.0454 16.524 15.0908 16.0892 14.0888 15.7939C13.5359 15.6245 12.8674 15.4494 12.1045 15.2468C11.4911 15.0775 10.8223 14.9188 9.78861 14.6998L9.78899 14.7002C8.71765 14.4763 7.66624 14.1692 6.64385 13.7816C6.14459 13.5798 5.70277 13.2605 5.35617 12.8516C5.0728 12.4865 4.93324 12.0314 4.9637 11.5721V11.3642C4.98567 10.9766 5.12215 10.6039 5.35617 10.2922C5.77138 9.79322 6.31576 9.41518 6.93145 9.19853C7.94506 8.85977 9.01295 8.70796 10.0816 8.74991C10.9101 8.75029 11.7352 8.85673 12.5359 9.0673C13.0664 9.21607 13.5661 9.45678 14.0113 9.77836C14.2943 9.97939 14.5364 10.2319 14.7245 10.5218L15.9239 12.3594L19.6435 9.99157L18.4442 8.15405C17.9588 7.40332 17.3343 6.75023 16.6037 6.22914C15.742 5.60886 14.7767 5.14387 13.7519 4.85617C13.3533 4.74479 12.9492 4.65361 12.5413 4.58266V0H8.11961V4.48998C7.23443 4.60061 6.36233 4.79821 5.51651 5.0805C4.13595 5.55048 2.91114 6.38442 1.97382 7.49215L1.91291 7.5631C1.06166 8.63313 0.57785 9.94349 0.531166 11.3039C0.439025 12.8027 0.891632 14.285 1.8077 15.4821L1.87941 15.5752H1.87979C2.72642 16.599 3.82706 17.3887 5.07428 17.8667C6.31065 18.3294 7.58215 18.6949 8.87674 18.9604C9.82167 19.1683 10.4243 19.3106 10.9659 19.4635H11.0268C11.7289 19.6386 12.3203 19.7969 12.8342 19.9503C13.4333 20.125 14.0046 20.3829 14.5308 20.7159C14.8451 20.9223 15.1091 21.195 15.3046 21.5143C15.5043 21.9069 15.5995 22.3437 15.581 22.7831V22.8815C15.5999 23.4125 15.4469 23.9355 15.1442 24.3742C14.7051 24.9804 14.0933 25.4431 13.3865 25.7032C12.314 26.1099 11.1686 26.2956 10.0208 26.2503H9.88242C8.63757 26.2876 7.40189 26.0286 6.27883 25.4953C5.72367 25.1985 5.24796 24.7747 4.89166 24.2594L3.63132 22.4599L0 24.9536L1.26035 26.753V26.7534C2.02948 27.8559 3.05503 28.76 4.25054 29.389L4.31145 29.4165C5.5112 29.9917 6.79701 30.3701 8.11933 30.5376V35H12.541V30.4391C13.3807 30.2938 14.203 30.0626 14.9949 29.7502C16.4857 29.1875 17.78 28.2094 18.7203 26.9338C19.4697 25.8321 19.9069 24.5522 19.9867 23.227C20.0665 21.9014 19.7855 20.5792 19.1733 19.3977L19.135 19.3431Z" fill="#42E234"/>
</svg>
