<svg width="38" height="38" viewBox="0 0 38 38" fill="none" xmlns="http://www.w3.org/2000/svg">
<rect width="38" height="38" rx="5" fill="#23272A"/>
<path d="M27.8889 13.2857H10.1111C9.71411 13.2857 9.34737 13.0679 9.14881 12.7143C8.9504 12.3607 8.9504 11.925 9.14881 11.5714C9.34739 11.2179 9.7141 11 10.1111 11H27.8889C28.2859 11 28.6526 11.2179 28.8512 11.5714C29.0496 11.925 29.0496 12.3607 28.8512 12.7143C28.6526 13.0679 28.2859 13.2857 27.8889 13.2857ZM29 19C29 18.6969 28.8829 18.4061 28.6746 18.1918C28.4663 17.9776 28.1835 17.8572 27.8889 17.8572H10.1111C9.71413 17.8572 9.34739 18.075 9.14883 18.4286C8.95042 18.7822 8.95042 19.2179 9.14883 19.5714C9.34741 19.925 9.71412 20.1429 10.1111 20.1429H27.8889C28.1835 20.1429 28.4663 20.0225 28.6746 19.8082C28.8829 19.5939 29 19.3031 29 19V19ZM29 25.8571C29 25.5541 28.8829 25.2632 28.6746 25.049C28.4663 24.8347 28.1835 24.7143 27.8889 24.7143H10.1111C9.71413 24.7143 9.34739 24.9321 9.14883 25.2857C8.95042 25.6393 8.95042 26.075 9.14883 26.4286C9.34741 26.7821 9.71412 27 10.1111 27H27.8889C28.1835 27 28.4663 26.8796 28.6746 26.6653C28.8829 26.451 29 26.1602 29 25.8572V25.8571Z" fill="#F5F5F5"/>
</svg>
