<svg width="35" height="35" viewBox="0 0 35 35" fill="none" xmlns="http://www.w3.org/2000/svg">
<path d="M31.3476 6.7998C32.1789 7.87462 32.8827 9.04231 33.4446 10.2794L17.5039 22.0308L10.8418 17.8545V12.8301L17.5039 17.0064L31.3476 6.7998Z" fill="#21A038"/>
<path d="M4.0429 17.4998C4.0429 17.2744 4.0484 17.0504 4.0594 16.8277L0.0219884 16.6299C0.0082464 16.9185 4.87902e-06 17.2098 4.87902e-06 17.5039C-0.00171293 19.8015 0.450189 22.0767 1.3298 24.1991C2.2094 26.3217 3.4994 28.2496 5.12578 29.8723L7.98961 27.0097C6.73768 25.7628 5.74452 24.2807 5.06721 22.6487C4.3899 21.0166 4.0418 19.2668 4.0429 17.4998Z" fill="url(#paint0_linear_105_23)"/>
<path d="M17.4997 4.04182C17.7251 4.04182 17.949 4.05007 18.1716 4.06106L18.3736 0.022091C18.0842 0.00834832 17.7928 0.00147782 17.4997 0.00147782C15.2011 -0.00132534 12.9248 0.449946 10.8012 1.32938C8.67757 2.20882 6.74859 3.49909 5.125 5.12612L7.98883 7.99009C9.23576 6.73769 10.718 5.74413 12.3502 5.06654C13.9824 4.38896 15.7324 4.04071 17.4997 4.04182Z" fill="url(#paint1_linear_105_23)"/>
<path d="M17.5003 30.9581C17.275 30.9581 17.0509 30.9581 16.827 30.9402L16.625 34.9778C16.9154 34.9925 17.2072 34.9998 17.5003 34.9998C19.7979 35.0022 22.0732 34.5506 24.1957 33.671C26.3182 32.7913 28.2459 31.5008 29.8682 29.8738L27.0099 27.0112C25.7627 28.263 24.2807 29.256 22.6488 29.9333C21.0169 30.6106 19.2672 30.9589 17.5003 30.9581Z" fill="url(#paint2_linear_105_23)"/>
<path d="M25.0863 6.39037L28.4888 3.88233C25.3789 1.36393 21.4968 -0.0069908 17.4951 2.68084e-05V4.04174C20.2049 4.03838 22.8518 4.85733 25.0863 6.39037Z" fill="url(#paint3_linear_105_23)"/>
<path d="M35.0001 17.4998C35.0023 16.4484 34.9103 15.3988 34.7252 14.3638L30.9586 17.1398C30.9586 17.2594 30.9586 17.3789 30.9586 17.4998C30.9596 19.3802 30.5654 21.2399 29.8018 22.9581C29.038 24.6764 27.9218 26.215 26.5254 27.4742L29.2422 30.4771C31.0576 28.8381 32.5083 26.836 33.5002 24.6004C34.4922 22.3648 35.0032 19.9456 35.0001 17.4998Z" fill="#21A038"/>
<path d="M17.501 30.9583C15.6206 30.9589 13.761 30.5646 12.0425 29.8009C10.3242 29.0373 8.78532 27.9211 7.52566 26.5249L4.52441 29.2405C6.16309 31.0562 8.16509 32.5072 10.4006 33.4994C12.6361 34.4916 15.0552 35.0028 17.501 35V30.9583Z" fill="url(#paint4_linear_105_23)"/>
<path d="M8.47609 7.52572L5.76066 4.52295C3.94475 6.16159 2.49354 8.16364 1.50112 10.3993C0.508723 12.6349 -0.00270563 15.0541 1.07643e-05 17.5001H4.04291C4.04208 15.6198 4.43629 13.7602 5.19997 12.0419C5.96366 10.3237 7.07981 8.78507 8.47609 7.52572Z" fill="url(#paint5_linear_105_23)"/>
<defs>
<linearGradient id="paint0_linear_105_23" x1="5.94343" y1="29.368" x2="1.52637" y2="16.5998" gradientUnits="userSpaceOnUse">
<stop offset="0.14" stop-color="#F1E813"/>
<stop offset="0.3" stop-color="#E6E418"/>
<stop offset="0.58" stop-color="#C9DA26"/>
<stop offset="0.89" stop-color="#A2CC39"/>
</linearGradient>
<linearGradient id="paint1_linear_105_23" x1="6.27932" y1="5.84074" x2="17.6564" y2="1.50528" gradientUnits="userSpaceOnUse">
<stop offset="0.06" stop-color="#0FA7DF"/>
<stop offset="0.54" stop-color="#0098F8"/>
<stop offset="0.92" stop-color="#0290EA"/>
</linearGradient>
<linearGradient id="paint2_linear_105_23" x1="16.3585" y1="32.5605" x2="29.2237" y2="29.6542" gradientUnits="userSpaceOnUse">
<stop offset="0.12" stop-color="#A2CC39"/>
<stop offset="0.28" stop-color="#86C239"/>
<stop offset="0.87" stop-color="#219F38"/>
</linearGradient>
<linearGradient id="paint3_linear_105_23" x1="16.6542" y1="1.35368" x2="27.6533" y2="4.74782" gradientUnits="userSpaceOnUse">
<stop offset="0.06" stop-color="#0290EA"/>
<stop offset="0.79" stop-color="#0C89CA"/>
</linearGradient>
<linearGradient id="paint4_linear_105_23" x1="5.53857" y1="28.7484" x2="17.5108" y2="33.2227" gradientUnits="userSpaceOnUse">
<stop offset="0.13" stop-color="#F1E813"/>
<stop offset="0.3" stop-color="#EAE616"/>
<stop offset="0.53" stop-color="#D8DF1F"/>
<stop offset="0.8" stop-color="#BAD52D"/>
<stop offset="0.98" stop-color="#A2CC39"/>
</linearGradient>
<linearGradient id="paint5_linear_105_23" x1="1.50613" y1="17.9893" x2="6.31212" y2="5.48784" gradientUnits="userSpaceOnUse">
<stop offset="0.07" stop-color="#A2CC39"/>
<stop offset="0.26" stop-color="#81C45E"/>
<stop offset="0.92" stop-color="#0FA7DF"/>
</linearGradient>
</defs>
</svg>
