<svg width="36" height="33" viewBox="0 0 36 33" fill="none" xmlns="http://www.w3.org/2000/svg">
<path fill-rule="evenodd" clip-rule="evenodd" d="M10.1644 23.9278C10.5942 23.5597 10.9853 23.3778 10.9681 22.4908C10.2934 22.8456 8.38935 22.8279 7.58562 21.6925C7.35783 21.3687 7.58563 21.209 7.81772 21.4619C8.36356 22.1005 9.37359 21.8122 9.74322 21.626C9.67994 21.3903 9.56192 21.1741 9.39938 20.9962C9.53691 20.8542 9.92803 20.6458 10.0097 20.2865C9.67103 20.1813 9.32227 20.1144 8.96958 20.087C9.07568 19.9912 9.15131 19.8646 9.18658 19.7237C9.22186 19.5829 9.21513 19.4343 9.16729 19.2975C8.33777 19.5592 7.31485 19.2044 7.08276 18.8895C6.85067 18.5746 7.08276 18.2863 7.28047 18.4903C7.71027 18.9338 9.72603 19.4527 10.4825 18.6721C10.2138 18.5983 9.98111 18.4245 9.82918 18.1843C10.5298 18.1133 11.0885 17.6875 11.1186 17.1553C10.6526 17.188 10.1855 17.1122 9.75181 16.9335C9.90779 16.8994 10.0515 16.8212 10.1669 16.7076C10.2822 16.5941 10.3647 16.4496 10.4051 16.2904C9.11571 16.2106 9.02116 15.2304 9.01686 15.0663C9.85067 15.5631 11.3206 15.3413 10.9381 14.1216C10.2461 14.0817 9.54551 12.9242 11.4538 11.8597C13.173 10.8928 15.1587 9.84614 14.9868 8.12973C14.8707 7.02981 13.1171 6.28027 12.8936 5.72144C12.163 6.08068 12.034 6.49759 12.3435 7.19835C12.3435 7.19835 10.7103 7.36688 10.5813 6.31131C10.5811 6.0752 10.6319 5.842 10.7301 5.62871C10.8282 5.41541 10.9712 5.22739 11.1487 5.07834C10.9638 5.07834 9.73462 4.73683 9.36499 5.77466C8.67302 5.29122 8.0756 5.30453 7.62001 5.81901C8.35926 6.26253 8.81915 7.82814 10.0441 8.2894C9.18448 8.77727 7.76184 8.57325 6.94093 7.07416C6.16299 8.28496 5.716 9.48246 7.37073 10.7598C4.33204 12.1879 4.36213 14.9111 1.71457 16.2106C1.98534 16.9513 2.54838 16.9513 3.26614 16.836C2.12288 18.3661 3.09852 19.9716 1.28906 20.6236C1.45668 21.249 1.79623 21.7457 2.46672 21.5639C2.2776 21.8699 2.15296 21.861 1.8564 22.1981C2.84494 22.8412 4.0054 22.3755 4.28477 20.3131C4.33204 19.945 4.82201 20.1757 4.65439 20.5349C3.52832 22.9388 6.37359 24.7483 5.36786 26.5135C6.25755 26.4736 6.93233 26.4026 7.30625 26.0922C7.49095 26.4261 7.57757 26.8083 7.55554 27.1921C7.73968 27.1746 7.91176 27.09 8.04093 26.9535C8.1701 26.8169 8.24791 26.6374 8.26041 26.447C8.58276 27.4139 9.73032 28.4472 11.5742 28.4472C10.5985 27.0147 11.5054 25.5555 10.1257 23.9145L10.1644 23.9278ZM8.30769 25.6886L7.91227 26.3805C7.75813 25.9462 7.57131 25.5251 7.35353 25.1209C7.03978 25.795 6.53691 25.8083 6.06413 25.8083C6.20167 24.2072 4.24179 22.5884 5.10138 20.7522C5.14603 20.665 5.17344 20.5695 5.18203 20.4712C5.19063 20.373 5.18023 20.274 5.15144 20.1799C5.12266 20.0858 5.07605 19.9986 5.01434 19.9232C4.95262 19.8479 4.87702 19.786 4.79193 19.741C3.47674 19.0536 4.08706 21.9098 2.77187 21.9941C2.9525 21.6636 3.08158 21.3059 3.15439 20.9341C2.87502 21.0095 2.20454 21.4485 1.90368 20.8853C2.21112 20.7121 2.47288 20.4639 2.66615 20.1624C2.85942 19.861 2.97834 19.5153 3.01256 19.1556C3.07554 18.6277 3.19963 18.1095 3.38219 17.6121C3.66036 17.1064 3.98723 16.6309 4.35783 16.1929C4.22459 16.1929 2.74608 16.5344 2.41514 16.3747C4.97244 14.7559 4.39651 12.6935 8.2905 10.8618C7.26757 10.0768 6.22316 9.45585 6.97101 7.95676C8.03691 9.28731 10.0699 8.84379 11.1616 8.20513C10.0785 7.98337 8.68161 6.99876 8.35067 5.90328C8.78047 5.83675 9.28763 6.29357 9.59279 6.50646C9.73892 6.10286 9.79909 5.61943 10.2719 5.53072C9.64007 6.93224 10.8908 7.6596 12.0856 7.66404C12.2704 7.66404 13.0441 7.58421 13.0441 7.58421C12.9194 7.32253 12.4209 6.60847 12.7862 6.31575C13.0785 6.5996 13.4266 6.82579 13.7447 7.07416C16.0656 8.92806 12.6401 10.6445 11.2389 11.4251C9.03835 12.6492 9.62717 14.1083 10.5469 14.4809C10.5469 14.645 10.4438 14.7204 10.2934 14.7692C9.65296 14.9909 9.04694 14.5164 8.53548 14.2148C8.56557 15.1284 8.50539 15.9889 9.48534 16.5122L8.81055 16.7694C9.39078 17.213 9.567 17.4658 10.2676 17.5589C9.92168 17.6881 9.55663 17.7541 9.18878 17.7541C9.25728 18.0471 9.37354 18.3261 9.53262 18.579C8.10138 18.7564 7.52975 17.9093 7.08706 17.9448C6.1415 18.0157 6.20167 19.8519 8.52689 19.8519L8.2862 20.2644C8.55292 20.4198 8.84377 20.5264 9.1458 20.5793C8.99107 20.7079 8.84064 20.8808 8.716 21.0228L9.08562 21.351C8.13577 21.5284 7.86929 20.4639 7.25468 20.9873C6.31772 21.7546 8.38505 23.3734 10.3707 23.1339C10.1127 23.3957 9.83378 23.6345 9.53691 23.848C11.153 25.4225 10.3578 26.9082 11.0197 27.9949C10.3959 27.9567 9.80028 27.7136 9.32002 27.301C8.83976 26.8884 8.50007 26.328 8.35067 25.7019" fill="#DEE0E1"/>
<path fill-rule="evenodd" clip-rule="evenodd" d="M5.79862 19.9582C6.13386 20.3175 6.54217 20.3574 7.31151 20.3042C6.45191 20.1977 5.98773 19.9848 5.69117 19.4171C5.64481 19.0983 5.6161 18.777 5.6052 18.4547C5.63126 17.3227 5.93595 16.2162 6.49059 15.2392C6.51144 15.7635 6.70932 16.2638 7.04999 16.6534C7.39065 17.043 7.85263 17.2974 8.35592 17.3725C7.19546 16.8492 6.51208 15.6694 6.88601 14.5296C7.1267 14.1304 7.40177 13.718 7.70692 13.301C7.86165 13.097 8.00778 12.9063 8.13672 12.7245C7.982 13.3055 8.66108 13.9087 9.12097 14.0062C8.87168 13.7579 8.34303 12.9462 9.55076 11.5935C9.19479 11.7677 8.85767 11.9803 8.54504 12.2277C10.7714 9.74404 12.6023 9.67308 13.4447 8.42236C12.2241 9.28279 9.00062 9.75291 7.5522 9.34044C8.35162 9.8904 10.2814 9.84162 10.7499 9.73961C9.17684 11.3185 5.74704 12.9462 5.16251 14.3965C5.70512 13.7229 6.44109 13.2445 7.26423 13.0305C6.70266 13.8262 6.22164 14.6793 5.8287 15.5763C4.91753 17.6209 3.6797 17.6475 3.61523 19.3373C4.04503 18.0068 4.87884 17.6963 5.46337 16.8403C5.35252 17.4528 5.30783 18.076 5.33013 18.6987C5.34478 19.3968 5.48166 20.0865 5.73415 20.7344C5.67397 21.5682 5.73415 22.9919 6.67541 23.9366C6.16311 23.1536 5.91397 22.2187 5.96624 21.2755C6.6926 22.7213 8.75993 24.7172 9.76137 26.0566C8.75993 24.3313 6.32297 22.3177 5.78142 19.9893" fill="#DEE0E1"/>
<path fill-rule="evenodd" clip-rule="evenodd" d="M28.7016 13.0128C29.5245 13.2274 30.2603 13.7057 30.8033 14.3788C30.2102 12.9285 26.7761 11.3008 25.2159 9.72191C25.6887 9.82392 27.6185 9.87714 28.4179 9.32274C26.9695 9.73078 23.7417 9.26509 22.5254 8.40466C23.385 9.65538 25.1987 9.73521 27.4251 12.21C27.1126 11.9625 26.7754 11.7499 26.4194 11.5758C27.6443 12.9285 27.1156 13.7357 26.8492 13.9885C27.3048 13.8865 27.9881 13.2878 27.8334 12.7068C27.9795 12.8886 28.13 13.0838 28.2632 13.2833C28.5684 13.7003 28.8391 14.1127 29.0798 14.5119C29.4495 15.6517 28.7661 16.8315 27.6099 17.3548C28.1128 17.2796 28.5742 17.025 28.9142 16.6353C29.2541 16.2457 29.4511 15.7454 29.4709 15.2215C30.0265 16.1981 30.3312 17.3049 30.3563 18.437C30.3454 18.7593 30.3167 19.0806 30.2704 19.3994C29.9738 19.9805 29.4967 20.1933 28.6543 20.2865C29.4237 20.3353 29.8277 20.2865 30.1672 19.9405C29.6386 22.2646 27.1887 24.2826 26.1873 26.0079C27.1887 24.6773 29.256 22.6726 29.9824 21.2267C30.0344 22.1699 29.7853 23.1047 29.2732 23.8878C30.1973 22.9476 30.2704 21.5239 30.2102 20.6856C30.4615 20.0374 30.5984 19.3479 30.6142 18.6499C30.638 18.0273 30.5933 17.4038 30.481 16.7916C31.0655 17.652 31.9122 17.9802 32.3291 19.2886C32.2518 17.5988 31.0397 17.5722 30.1156 15.5275C29.7236 14.6301 29.2425 13.777 28.6801 12.9818" fill="#DEE0E1"/>
<path fill-rule="evenodd" clip-rule="evenodd" d="M32.6726 16.8536C33.3904 16.9689 33.962 16.9689 34.2242 16.2283C31.581 14.9288 31.6024 12.2056 28.5681 10.7774C30.2357 9.50012 29.7887 8.29819 28.9979 7.09182C28.1769 8.59091 26.7629 8.79493 25.8947 8.30706C27.1196 7.86354 27.5795 6.28906 28.3188 5.83667C27.8804 5.32219 27.2787 5.29114 26.591 5.76571C26.2171 4.73231 24.9921 5.06939 24.8073 5.06939C24.9848 5.21844 25.1278 5.40646 25.2259 5.61976C25.3241 5.83305 25.3749 6.06625 25.3747 6.30236C25.2457 7.34019 23.6168 7.1894 23.6168 7.1894C23.9434 6.48864 23.8016 6.07173 23.0666 5.71249C22.8431 6.27132 21.0896 7.02086 20.9778 8.12078C20.8016 9.84163 22.7744 10.8839 24.5065 11.8508C26.4148 12.9152 25.7142 14.0683 25.0222 14.1127C24.6397 15.3368 26.1096 15.5541 26.9434 15.0574C26.9434 15.2215 26.836 16.2017 25.5552 16.2815C25.5955 16.4407 25.678 16.5851 25.7934 16.6987C25.9088 16.8123 26.0525 16.8905 26.2085 16.9246C25.7745 17.1025 25.3076 17.1783 24.8417 17.1464C24.889 17.6786 25.4477 18.1043 26.1311 18.1753C25.9829 18.42 25.7514 18.5987 25.4821 18.6765C26.2385 19.4526 28.2715 18.9426 28.6841 18.4946C28.8732 18.2906 29.1139 18.5833 28.8818 18.8894C28.6497 19.1954 27.6268 19.5635 26.7973 19.3018C26.7495 19.4383 26.7424 19.5864 26.7769 19.7271C26.8114 19.8678 26.8858 19.9946 26.9907 20.0913C26.6452 20.1203 26.3038 20.1872 25.9721 20.2909C26.0494 20.6501 26.4449 20.8586 26.5824 21.0005C26.4138 21.1767 26.2898 21.393 26.2214 21.6303C26.591 21.8166 27.6053 22.1049 28.1469 21.4662C28.3661 21.2134 28.6067 21.3731 28.3832 21.6968C27.5838 22.8322 25.6755 22.85 25.0007 22.4952C25.0007 23.3822 25.3532 23.564 25.8045 23.9366C24.4248 25.5776 25.336 27.0412 24.3603 28.4693C26.1999 28.4693 27.3689 27.4359 27.6741 26.4691C27.6866 26.6595 27.7644 26.839 27.8936 26.9756C28.0227 27.1121 28.1948 27.1967 28.379 27.2142C28.3586 26.8305 28.4451 26.4489 28.6282 26.1143C29.0022 26.4247 29.6812 26.4957 30.5666 26.5356C29.5609 24.7615 32.4105 22.9653 31.2801 20.557C31.1125 20.1977 31.6024 19.9671 31.6497 20.3352C31.9119 22.3932 33.0896 22.8633 34.0781 22.2202C33.7815 21.8831 33.6483 21.892 33.4678 21.586C34.134 21.7678 34.4735 21.2711 34.6454 20.6457C32.836 19.9893 33.8116 18.3882 32.6683 16.8581L32.6726 16.8536ZM32.8188 20.9517C32.8877 21.3255 33.0155 21.685 33.197 22.0162C31.8818 21.9275 32.4921 19.0712 31.1769 19.7587C31.0918 19.8036 31.0162 19.8656 30.9545 19.9409C30.8928 20.0162 30.8462 20.1035 30.8174 20.1975C30.7886 20.2916 30.7782 20.3906 30.7868 20.4889C30.7954 20.5871 30.8228 20.6827 30.8675 20.7699C31.7271 22.606 29.7672 24.2249 29.8789 25.8349C29.3933 25.8349 28.8904 25.8349 28.5895 25.1474C28.372 25.5517 28.1851 25.9728 28.0308 26.407L27.6354 25.7151C27.4854 26.3409 27.1455 26.9009 26.6654 27.3134C26.1852 27.7259 25.59 27.9693 24.9663 28.0081C25.6282 26.9215 24.8331 25.4401 26.4492 23.8612C26.152 23.6481 25.8731 23.4092 25.6153 23.1471C27.601 23.3911 29.6683 21.7678 28.7271 21.0005C28.1125 20.4993 27.8417 21.5416 26.8961 21.3642L27.2658 21.036C27.1368 20.9029 26.9864 20.73 26.836 20.5925C27.1381 20.54 27.429 20.4334 27.6956 20.2776L27.4549 19.8651C29.7801 19.8651 29.836 18.029 28.8947 17.958C28.4649 17.9225 27.8761 18.7652 26.4492 18.5922C26.6065 18.3383 26.7226 18.0597 26.793 17.7673C26.4251 17.7673 26.0601 17.7012 25.7142 17.5721C26.4148 17.479 26.5738 17.2351 27.1712 16.7827L26.4964 16.5254C27.4764 16.0198 27.4162 15.1417 27.442 14.228C26.9305 14.534 26.3245 15.0042 25.6884 14.7824C25.538 14.7292 25.4348 14.6582 25.4348 14.4941C26.3546 14.1216 26.9391 12.6624 24.7428 11.4383C23.3245 10.6444 19.8947 8.93242 22.2199 7.09626C22.538 6.84789 22.8818 6.62169 23.1741 6.33784C23.5394 6.62613 23.0408 7.34019 22.9162 7.6063C22.9162 7.6063 23.6898 7.68614 23.8704 7.68614C25.0652 7.68614 26.3202 6.9499 25.6884 5.55282C26.1655 5.65483 26.2214 6.12496 26.3632 6.52856C26.6683 6.31567 27.197 5.85885 27.6053 5.92537C27.2744 7.02086 25.8861 8.00547 24.7944 8.22723C25.8904 8.84371 27.9191 9.30054 28.985 7.97886C29.7328 9.47351 28.6927 10.0989 27.6655 10.8839C31.5638 12.7201 30.9878 14.778 33.5451 16.3968C33.2142 16.5565 31.7314 16.2371 31.6024 16.215C31.9752 16.6523 32.3036 17.1278 32.5824 17.6342C32.7674 18.1314 32.8944 18.6495 32.9606 19.1777C32.9966 19.5369 33.1163 19.8818 33.3093 20.1829C33.5024 20.4841 33.7632 20.7327 34.0695 20.9074C33.7686 21.4706 33.1024 21.0316 32.8231 20.9562" fill="#DEE0E1"/>
<path fill-rule="evenodd" clip-rule="evenodd" d="M14.2649 25.4445L14.8194 24.9566L14.7334 24.7792C14.6732 24.655 14.7033 24.6462 14.7678 24.5974L15.06 24.3712C15.0917 24.3468 15.1288 24.3312 15.1679 24.3258C15.207 24.3203 15.2468 24.3253 15.2835 24.3401L16.1431 24.553H15.2363C15.1571 24.5495 15.079 24.5734 15.0144 24.6208C14.9498 24.6682 14.9024 24.7364 14.8795 24.8147L14.8151 24.9522L14.5744 25.4578C14.5185 25.5648 14.4971 25.6875 14.5134 25.8079C14.5296 25.9283 14.5826 26.0403 14.6646 26.1275L14.8322 26.3315L14.497 27.0545H14.785L15.0214 26.5577C15.2194 26.3704 15.3675 26.1337 15.4512 25.8703C15.3523 25.786 15.2792 25.7283 15.3351 25.6086L15.4426 25.3735C15.4769 25.2937 15.4898 25.2626 15.593 25.2848L16.5171 25.4933C16.5862 25.529 16.6654 25.5379 16.7404 25.5184C16.8153 25.4988 16.881 25.4521 16.9254 25.3868C17.0543 25.1872 17.0715 25.2094 17.3552 25.2405L17.8279 25.2937C18.3599 25.3643 18.8997 25.2554 19.3666 24.9832C19.4725 25.1651 19.5872 25.3412 19.7105 25.511C19.7406 25.5687 19.7105 25.6529 19.6503 25.7594L19.1388 27.0545H19.9555L20.4196 25.8614C20.453 25.768 20.5059 25.6832 20.5744 25.613L20.3079 27.0545H21.0987L21.3093 25.6263C21.3566 25.3114 21.3093 25.2094 21.1804 25.0764C20.8494 24.7881 20.858 24.1893 20.7506 23.8168C20.8106 23.7817 20.8799 23.7677 20.9483 23.7769C21.1202 23.7769 21.2492 24.2514 21.4555 24.5397C21.8595 25.1296 22.4139 25.7771 23.05 24.8635C22.9892 24.7616 22.9202 24.6651 22.8437 24.5752L22.6675 24.3623C22.5643 24.2426 22.0744 23.666 21.8681 23.4753C21.6783 23.2806 21.4307 23.1574 21.165 23.1252C20.8992 23.093 20.6307 23.1538 20.4024 23.2979C19.7577 22.9519 19.0787 23.2979 18.9153 23.2979L17.8065 23.2269C17.7698 23.2255 17.734 23.2146 17.7025 23.1952C17.6709 23.1759 17.6446 23.1486 17.6259 23.116L17.8322 23.0451C17.6388 22.2157 17.1532 21.5194 16.3065 21.404C16.3065 21.404 16.2549 21.1424 16.1302 21.0892L15.8767 21.3996C15.8027 21.4106 15.7305 21.4315 15.6618 21.4617L14.5787 21.0448L15.391 21.8919C15.391 21.8919 14.987 22.4951 14.8537 22.6193C14.8141 22.6615 14.7919 22.718 14.7919 22.7767C14.7919 22.8355 14.8141 22.892 14.8537 22.9342L15.0128 23.1471C15.0944 23.2579 15.1847 23.2535 15.3136 23.1826L15.4898 23.0894C15.5672 23.0229 15.8294 23.1559 15.9196 23.0495C15.8743 23.2668 15.8499 23.4881 15.8466 23.7103L15.1159 23.6216C15.0586 23.6066 14.9986 23.6061 14.941 23.62C14.8834 23.6339 14.8299 23.6618 14.785 23.7015L14.1618 24.1938C14.0603 24.2754 13.9903 24.3916 13.9643 24.5216C13.9383 24.6517 13.958 24.787 14.0199 24.9034L14.2649 25.4445ZM20.2821 25.5864L19.7878 26.8416H19.4827L19.9769 25.6263C20.0285 25.4711 19.9297 25.3957 19.8093 25.2227C19.9809 25.3267 20.1606 25.4157 20.3466 25.4888C20.3236 25.5194 20.3035 25.552 20.2864 25.5864H20.2821ZM15.5242 22.8632L15.3824 22.9386C15.2835 22.9963 15.2363 23.0229 15.1503 22.912L15.0901 22.8322C15.0707 22.8007 15.0622 22.7634 15.0661 22.7263C15.0701 22.6892 15.0861 22.6546 15.1116 22.6282L15.7176 21.8964L15.1589 21.4218L15.8724 21.6923L16.1345 21.3553C16.2119 21.4218 16.1861 21.6169 16.1861 21.6169C16.5196 21.6868 16.8185 21.876 17.03 22.151C17.2415 22.4261 17.3521 22.7694 17.3423 23.1205C17.4413 23.2765 17.5956 23.3863 17.7721 23.4265L19.0056 23.5019C19.2076 23.5019 19.7191 23.0983 20.3767 23.5019C20.5348 23.3942 20.7137 23.3231 20.901 23.2934C21.168 23.3005 21.429 23.3764 21.6603 23.5143C21.8915 23.6522 22.0856 23.8477 22.2248 24.0829C22.4569 24.3845 22.7749 24.8502 22.7749 24.8502C22.6374 25.0187 22.5042 25.0719 22.3924 25.032C22.3154 24.9859 22.25 24.9217 22.2014 24.8447C22.1529 24.7676 22.1226 24.6799 22.113 24.5885C22.0227 24.3587 21.8742 24.1581 21.6832 24.0075C21.7741 24.2198 21.8377 24.4434 21.8724 24.6728C21.391 24.1805 21.3007 23.5773 20.9612 23.4974C20.8682 23.4829 20.7731 23.496 20.687 23.5353C20.601 23.5746 20.5276 23.6384 20.4755 23.7192C20.6474 24.1272 20.6388 24.6062 20.8108 24.9123C20.944 25.1473 20.9698 25.1695 21.03 25.2227C21.1718 25.3292 21.0901 25.5154 21.0686 25.6662L20.8838 26.846H20.5744L20.7764 25.6884C20.8365 25.338 19.8781 25.338 19.3881 24.6639C18.9583 25.1695 17.7979 25.0409 17.2907 24.9611C17.1967 24.926 17.0937 24.9258 16.9996 24.9606C16.9054 24.9954 16.826 25.063 16.7749 25.1518C16.7105 25.2715 16.5987 25.236 16.53 25.2183L15.6059 25.0143C15.5767 25.0009 15.5452 24.9942 15.5133 24.9945C15.4814 24.9948 15.45 25.0021 15.4211 25.016C15.3922 25.0298 15.3665 25.0499 15.3457 25.0749C15.325 25.0998 15.3096 25.1291 15.3007 25.1606L15.1159 25.5554C15.0924 25.592 15.083 25.6363 15.0893 25.6797C15.0957 25.7231 15.1174 25.7626 15.1503 25.7904L15.2406 25.888C15.1967 26.0166 15.1212 26.1313 15.0214 26.2206L14.8194 25.9856C14.775 25.9217 14.749 25.8461 14.7444 25.7677C14.7399 25.6892 14.7569 25.611 14.7936 25.5421L15.0944 24.899C15.1137 24.8547 15.1452 24.8172 15.1849 24.7912C15.2246 24.7652 15.2709 24.7518 15.3179 24.7526H16.4612L16.1087 24.1627C15.8466 23.7192 16.2807 22.9342 16.2162 22.5616C16.1818 23.0584 15.6016 22.8322 15.507 22.8987L15.5242 22.8632ZM14.2778 24.349L14.8194 23.9055C14.8535 23.8672 14.8956 23.8373 14.9425 23.8181C14.9893 23.7989 15.0398 23.7909 15.0901 23.7946L15.8552 23.8966C15.8896 24.0305 15.9447 24.1578 16.0185 24.2736L15.2062 24.0962C15.1609 24.0849 15.1135 24.0855 15.0685 24.0978C15.0234 24.1102 14.9821 24.1341 14.9483 24.1672L14.5615 24.4687C14.5269 24.5003 14.5045 24.5436 14.4982 24.5908C14.4919 24.638 14.5021 24.6859 14.5271 24.726L14.5916 24.8635L14.3208 25.0719L14.2176 24.8724C14.1145 24.6595 14.1059 24.4643 14.2778 24.3268" fill="#DEE0E1"/>
<path fill-rule="evenodd" clip-rule="evenodd" d="M16.638 9.18969C16.8995 9.36033 17.174 9.50866 17.4589 9.63321V9.27396L16.3027 8.83044C16.3027 8.83044 16.3027 8.97681 16.638 9.21187" fill="#DEE0E1"/>
<path fill-rule="evenodd" clip-rule="evenodd" d="M17.4593 8.75504V8.39579L16.1484 7.91235C16.2984 8.06458 16.4625 8.20125 16.6384 8.32039C16.8997 8.49143 17.1743 8.63978 17.4593 8.76391" fill="#DEE0E1"/>
<path fill-rule="evenodd" clip-rule="evenodd" d="M17.459 7.93899V7.57531L16.0234 7.02979C16.0234 7.02979 16.3028 7.26485 16.638 7.49991C16.8995 7.67055 17.1741 7.81888 17.459 7.94343" fill="#DEE0E1"/>
<path fill-rule="evenodd" clip-rule="evenodd" d="M21.4941 12.862H22.9641C22.9089 12.7164 22.8085 12.5939 22.6786 12.5136C22.5487 12.4334 22.3966 12.3999 22.2463 12.4185C22.0934 12.4132 21.9421 12.4519 21.8093 12.5302C21.6765 12.6085 21.5674 12.7234 21.4941 12.862Z" fill="#DEE0E1"/>
<path fill-rule="evenodd" clip-rule="evenodd" d="M19.9551 7.03422L18.5195 7.57975V7.94343C18.8047 7.81956 19.0793 7.6712 19.3404 7.49991C19.6757 7.26485 19.9551 7.02979 19.9551 7.02979" fill="#DEE0E1"/>
<path fill-rule="evenodd" clip-rule="evenodd" d="M19.6757 8.8127L18.5195 9.25622V9.61547C18.8044 9.4909 19.0789 9.34257 19.3404 9.17195C19.6757 8.93689 19.6757 8.79053 19.6757 8.79053" fill="#DEE0E1"/>
<path fill-rule="evenodd" clip-rule="evenodd" d="M19.8363 7.91231L18.5469 8.39575V8.755C18.8321 8.63122 19.1067 8.48286 19.3678 8.31148C19.5438 8.1925 19.7079 8.05582 19.8578 7.90344" fill="#DEE0E1"/>
<path fill-rule="evenodd" clip-rule="evenodd" d="M13.7314 12.4185C13.581 12.3991 13.4286 12.4323 13.2985 12.5126C13.1684 12.593 13.0682 12.716 13.0137 12.862H14.4836C14.41 12.7237 14.3008 12.6091 14.1681 12.5309C14.0353 12.4526 13.8842 12.4137 13.7314 12.4185Z" fill="#DEE0E1"/>
<path fill-rule="evenodd" clip-rule="evenodd" d="M20.9048 6.06289C20.9048 5.21134 19.5166 4.44849 17.9865 4.44849C16.4564 4.44849 15.0682 5.21134 15.0682 6.06289L15.1026 6.27134L15.7129 9.89044L12.8375 11.6335C12.6336 11.7709 12.4603 11.9516 12.3292 12.1634C12.198 12.3752 12.112 12.6133 12.0768 12.862H12.6054C12.6429 12.5599 12.7894 12.2834 13.0156 12.0878C13.2419 11.8922 13.5312 11.7917 13.8261 11.8064C14.4922 11.8419 14.8877 12.2499 15.2831 12.862L15.3862 13.0217L15.5324 13.2567H11.2773C11.6341 13.892 11.843 14.6041 11.8877 15.3368V24.4555C11.8877 26.8062 13.6369 27.9238 15.5324 27.9238C16.9937 27.9238 17.1914 27.8573 17.9994 28.6867C18.8031 27.8529 19.0008 27.9238 20.4665 27.9238C22.3576 27.9238 24.1069 26.8062 24.1069 24.4555V15.3235C24.1498 14.591 24.3573 13.8789 24.7129 13.2434H20.4536L20.5997 13.0084L20.7028 12.8487C21.094 12.2499 21.4894 11.833 22.1599 11.7931C22.4552 11.781 22.7441 11.8843 22.9688 12.0825C23.1935 12.2807 23.3375 12.5591 23.3719 12.862H23.9006C23.8668 12.6144 23.7828 12.377 23.6539 12.1652C23.525 11.9535 23.3542 11.7723 23.1527 11.6335L20.2601 9.89487L20.8705 6.27578L20.9048 6.06289ZM15.6613 6.47979L17.8103 7.23821V10.7243L16.22 9.85939L15.6613 6.47979ZM16.19 13.8777C16.5078 14.3041 16.9669 14.5947 17.4793 14.6937C17.5331 14.9405 17.6646 15.162 17.8533 15.3235C17.8195 15.468 17.8139 15.618 17.8368 15.7647C17.8597 15.9114 17.9106 16.052 17.9866 16.1783C18.0626 16.3046 18.1621 16.414 18.2794 16.5002C18.3967 16.5865 18.5294 16.6478 18.6699 16.6807C18.7001 16.8355 18.7698 16.9792 18.8718 17.0969C18.9738 17.2147 19.1044 17.3022 19.2501 17.3504L18.7988 17.8871C18.7295 17.9758 18.6395 18.0451 18.5374 18.0885C18.4352 18.1319 18.3241 18.148 18.2143 18.1354L16.1985 17.9004C16.2845 17.6697 16.0524 17.3992 15.4163 17.5145L16.2071 15.2304L15.7215 14.1659L14.806 14.9731L14.7372 17.3726L14.3504 17.173C13.8389 16.9468 13.6885 17.9004 14.1742 17.9048H14.3676C14.3573 17.9494 14.3604 17.9963 14.3766 18.0391C14.3927 18.0818 14.421 18.1185 14.4579 18.1443C14.4347 18.159 14.4157 18.1795 14.4024 18.204C14.3892 18.2284 14.3823 18.256 14.3823 18.284C14.3823 18.312 14.3892 18.3396 14.4024 18.364C14.4157 18.3885 14.4347 18.409 14.4579 18.4237C14.4314 18.4384 14.4087 18.4595 14.3917 18.4851C14.3747 18.5107 14.3639 18.5401 14.3601 18.5709C14.3563 18.6017 14.3597 18.633 14.37 18.6621C14.3802 18.6913 14.3971 18.7175 14.4192 18.7386C14.3847 18.796 14.3635 18.8609 14.357 18.9281C14.3505 18.9953 14.359 19.0631 14.3818 19.1265C14.4046 19.1898 14.4411 19.2469 14.4886 19.2934C14.536 19.34 14.5931 19.3747 14.6556 19.395C14.9435 19.4748 15.124 19.1511 15.1842 18.9515L18.3218 19.9538C18.5158 20.0251 18.7257 20.0371 18.9262 19.9883C19.1267 19.9396 19.3093 19.8321 19.4521 19.6789L20.2687 18.9382C20.2057 19.1394 20.2144 19.3571 20.2932 19.5523C20.372 19.7475 20.5157 19.9072 20.6985 20.0026C20.6725 20.2114 20.661 20.4219 20.6642 20.6324H12.498V15.3102C12.4803 14.8119 12.377 14.3209 12.1928 13.8599L16.19 13.8777ZM19.5639 15.9001C19.4794 16.0698 19.4393 16.2593 19.4476 16.4499C19.4559 16.6405 19.5123 16.8255 19.6112 16.9867L19.4779 17.1242C18.8891 17.0488 18.657 16.144 18.657 16.144C18.6509 16.2237 18.6509 16.3038 18.657 16.3835C18.4833 16.3199 18.3355 16.1977 18.2373 16.0368C18.139 15.8759 18.0961 15.6856 18.1155 15.4965C18.2495 15.5723 18.3947 15.6247 18.5453 15.6517L18.5839 15.3856C18.4123 15.3624 18.2508 15.2886 18.1189 15.1729C17.987 15.0572 17.8903 14.9047 17.8404 14.7336H17.7845H18.0037C18.2334 14.7341 18.462 14.7012 18.6828 14.6361C18.7749 14.7643 18.8914 14.8718 19.0251 14.9518C19.1589 15.0319 19.3071 15.0829 19.4607 15.1018C19.4133 15.3696 19.4494 15.646 19.5639 15.8912V15.9001ZM20.4235 18.2862C20.3619 18.3702 20.3154 18.4648 20.2859 18.5656L19.9593 18.8761C19.9729 18.6256 19.9303 18.3752 19.8349 18.1445C19.7395 17.9137 19.5938 17.7088 19.4091 17.5455L19.7573 17.1907L19.8261 17.2617C19.8005 17.3686 19.7956 17.4797 19.8118 17.5885C19.8281 17.6973 19.865 17.8018 19.9206 17.8958C19.9761 17.9898 20.0491 18.0715 20.1355 18.1362C20.2218 18.201 20.3197 18.2474 20.4235 18.2729V18.2862ZM18.8547 18.1354L19.1255 17.8649C19.3123 18.0249 19.4579 18.2301 19.5494 18.4623C19.6409 18.6944 19.6754 18.9462 19.6498 19.1954L19.3576 19.4748C19.3016 19.5307 19.2396 19.5798 19.1728 19.6212C19.2383 19.3663 19.2441 19.099 19.1895 18.8414C19.1349 18.5837 19.0216 18.3433 18.859 18.1399L18.8547 18.1354ZM18.2788 18.3705C18.3797 18.3836 18.4822 18.3683 18.5753 18.3261C18.7076 18.5356 18.7877 18.7756 18.8087 19.0246C18.8297 19.2737 18.7909 19.5243 18.6957 19.7543C18.5589 19.7531 18.4229 19.7322 18.2917 19.6922L18.1885 19.6611C18.3669 19.2555 18.3959 18.7966 18.2702 18.3705H18.2788ZM17.5868 18.2818L17.9693 18.3306C18.0385 18.7437 17.9752 19.1688 17.7888 19.5414L17.359 19.4083C17.5543 19.0674 17.64 18.6716 17.604 18.2773L17.5868 18.2818ZM16.796 18.1842L17.2559 18.2419C17.2906 18.6166 17.2157 18.9936 17.041 19.324L16.5725 19.1821C16.7533 18.8847 16.832 18.5333 16.796 18.1842ZM14.9263 18.0556C14.8919 18.0729 14.8536 18.0802 14.8155 18.0768C14.7774 18.0733 14.7409 18.0592 14.7099 18.0359C14.679 18.0127 14.6548 17.9812 14.6399 17.9448C14.625 17.9084 14.62 17.8685 14.6255 17.8294C14.7387 17.7668 14.8659 17.7362 14.9943 17.7409C15.1226 17.7456 15.2475 17.7853 15.3561 17.856C15.4679 17.9314 15.5624 18.1399 15.7172 18.2685C15.6873 18.4749 15.6398 18.6783 15.5753 18.8761C15.4937 18.8717 15.4149 18.8434 15.3483 18.7944C15.2816 18.7454 15.23 18.6778 15.1993 18.5996C15.1686 18.5213 15.1602 18.4357 15.175 18.3527C15.1898 18.2697 15.2273 18.1928 15.2831 18.131C15.2415 18.0761 15.1826 18.0381 15.1166 18.0235C15.0506 18.0089 14.9817 18.0187 14.922 18.0512L14.9263 18.0556ZM14.6212 18.9382C14.7147 18.9767 14.8132 19.0006 14.9134 19.0091C14.9114 19.0332 14.9046 19.0566 14.8933 19.0777C14.882 19.0989 14.8666 19.1174 14.8479 19.132C14.8293 19.1466 14.8079 19.157 14.7852 19.1626C14.7624 19.1682 14.7387 19.1688 14.7157 19.1644C14.6943 19.1572 14.6745 19.1453 14.6578 19.1296C14.6411 19.1139 14.6279 19.0947 14.6189 19.0733C14.61 19.0519 14.6056 19.0288 14.6059 19.0055C14.6063 18.9822 14.6115 18.9593 14.6212 18.9382ZM14.1914 17.6653C14.1667 17.6525 14.147 17.6314 14.1356 17.6054C14.1242 17.5794 14.1218 17.5501 14.1289 17.5225C14.136 17.4949 14.152 17.4707 14.1743 17.4539C14.1967 17.4371 14.2239 17.4287 14.2516 17.4302C14.3805 17.4302 14.5524 17.5855 14.7243 17.6609C14.5479 17.6906 14.3679 17.6906 14.1914 17.6609V17.6653ZM14.6212 18.5878C14.7114 18.6809 14.9908 18.6455 14.9908 18.6455V18.7031C14.8705 18.8717 14.5309 18.7963 14.6083 18.5878H14.6212ZM14.9822 18.3971C14.7802 18.4814 14.5782 18.366 14.6427 18.233C14.7329 18.3217 14.9951 18.2773 14.9951 18.2773L14.9822 18.3971ZM15.2745 16.0021L14.892 17.4391L15.0209 15.1195L15.614 14.5962L15.9149 15.2792L15.1541 17.5322L15.3561 16.0154C15.3561 15.909 15.2917 15.8957 15.2745 16.0154V16.0021ZM15.3346 17.7407C15.517 17.7283 15.7001 17.7372 15.8805 17.7673C15.9708 17.8072 15.9106 17.958 15.7945 17.9447C15.6348 17.8933 15.4807 17.8249 15.3346 17.7407ZM16.0008 18.0911L16.465 18.1487C16.4942 18.4689 16.4283 18.7907 16.2759 19.0712L15.8461 18.9382C15.9499 18.6538 16.0108 18.3546 16.0266 18.0512L16.0008 18.0911ZM23.5094 24.4289C23.5301 24.9199 23.417 25.407 23.183 25.835C22.949 26.263 22.6035 26.6148 22.1857 26.8505L22.4822 26.2296H22.1942L21.816 27.0279C21.3883 27.191 20.9353 27.2722 20.4793 27.2674C18.9708 27.2674 18.571 27.3295 18.0123 27.9061C17.4493 27.334 17.0538 27.2674 15.5453 27.2674C15.0911 27.2719 14.6398 27.1923 14.2129 27.0324L14.5911 26.234H14.2988L13.9636 26.9348C13.8862 26.8949 13.8089 26.855 13.7315 26.8106L14.0066 26.2385H13.7229L13.5166 26.682C13.1852 26.4248 12.9188 26.089 12.74 25.7029C12.5612 25.3169 12.4752 24.892 12.4894 24.4644V20.9651H23.4836L23.5094 24.4289ZM23.8146 13.851C23.6272 14.3111 23.5223 14.8026 23.5051 15.3013V20.6236H22.9034C22.6687 20.2645 22.4984 19.8649 22.4006 19.4438C22.3494 19.6426 22.339 19.8502 22.3701 20.0533C22.4012 20.2565 22.473 20.4507 22.5811 20.6236H21.8074C21.6358 20.2385 21.5158 19.8312 21.4507 19.4127C21.2186 19.6833 21.3647 20.4195 21.5109 20.6236H20.9994C20.9854 20.3581 21.01 20.092 21.0725 19.8341C20.806 19.7809 20.518 19.6345 20.518 19.3285C20.5647 19.3822 20.6242 19.4223 20.6905 19.4449C20.7569 19.4674 20.8278 19.4716 20.8963 19.4571L21.1155 19.2797C20.3891 19.3019 20.359 18.4858 20.9306 18.0999C20.359 18.0999 19.9292 17.7673 20.1398 17.1375C20.0434 17.0737 19.9604 16.9908 19.8955 16.8934C19.8306 16.7961 19.7853 16.6864 19.762 16.5707C19.7388 16.455 19.7382 16.3357 19.7603 16.2198C19.7823 16.1039 19.8266 15.9937 19.8905 15.8957C19.7837 15.7463 19.7167 15.5706 19.6963 15.3861C19.676 15.2016 19.7029 15.0149 19.7745 14.8445C19.4787 14.8477 19.1934 14.7315 18.9793 14.5208H18.9321C19.2737 14.3784 19.571 14.1422 19.7917 13.8377L23.8146 13.851ZM21.6269 11.2875C21.0295 11.394 20.518 12.1479 20.0968 12.8265L20.0495 12.9064H19.6197V12.9862C19.5725 13.5095 19.0911 14.2192 18.0295 14.2192C17.6284 14.2325 17.2352 14.1025 16.9163 13.851C16.716 13.6894 16.5665 13.4703 16.4865 13.2213C16.4625 13.1449 16.4466 13.0661 16.4392 12.9862V12.9064H16.0094L15.902 12.862C15.4722 12.1834 14.9693 11.4339 14.3762 11.323L15.9965 10.3517L17.9951 11.4605L19.9851 10.3428L21.6269 11.2875ZM19.7659 9.83278L18.1756 10.6976V7.23821L20.3246 6.47979L19.7659 9.83278ZM17.9951 6.85235L15.6312 5.89435C15.8289 5.40648 16.7573 5.00732 17.9908 5.00732C19.2243 5.00732 20.1398 5.42422 20.3504 5.89435L17.9951 6.85235Z" fill="#DEE0E1"/>
<path fill-rule="evenodd" clip-rule="evenodd" d="M23.2343 17.2972V17.0311C22.4435 17.0311 22.2587 16.0465 22.2587 16.0465C22.2172 16.1978 22.2115 16.3571 22.2419 16.5111C22.2723 16.6651 22.338 16.8094 22.4335 16.9318C22.5291 17.0543 22.6516 17.1513 22.7909 17.2149C22.9302 17.2785 23.0823 17.3067 23.2343 17.2972Z" fill="#DEE0E1"/>
<path fill-rule="evenodd" clip-rule="evenodd" d="M22.2329 18.9559L22.1513 18.7031C21.4765 18.8805 21.1284 17.7761 21.1284 17.7761C21.0818 17.9361 21.0774 18.1061 21.1156 18.2685C21.1538 18.4308 21.2332 18.5797 21.3457 18.6999C21.4582 18.8201 21.5997 18.9071 21.7557 18.9521C21.9116 18.9971 22.0764 18.9984 22.2329 18.9559Z" fill="#DEE0E1"/>
<path fill-rule="evenodd" clip-rule="evenodd" d="M22.7232 17.927C21.9152 18.06 21.5842 17.0887 21.5842 17.0887C21.5596 17.2156 21.5605 17.3463 21.5868 17.4727C21.6132 17.5992 21.6644 17.7187 21.7373 17.8239C21.8103 17.9291 21.9034 18.0178 22.0108 18.0843C22.1183 18.1509 22.2379 18.1939 22.3622 18.2108C22.332 18.349 22.3413 18.4932 22.389 18.626C22.4367 18.7587 22.5207 18.8744 22.6308 18.9589C22.7409 19.0434 22.8723 19.0931 23.0093 19.1021C23.1462 19.111 23.2828 19.0787 23.4023 19.0092L23.3249 18.7697C23.2175 18.8121 23.0995 18.8169 22.9891 18.7833C22.8788 18.7497 22.7822 18.6796 22.7143 18.5838C22.6463 18.488 22.6108 18.3718 22.6132 18.2531C22.6156 18.1344 22.6558 18.0198 22.7275 17.927" fill="#DEE0E1"/>
<path fill-rule="evenodd" clip-rule="evenodd" d="M22.2206 15.155V14.8889C21.1547 14.6627 21.2449 13.9043 21.2449 13.9043C21.2036 14.0552 21.1978 14.214 21.228 14.3677C21.2582 14.5214 21.3236 14.6653 21.4186 14.7877C21.5136 14.91 21.6356 15.0072 21.7743 15.0711C21.913 15.135 22.0646 15.1637 22.2163 15.155" fill="#DEE0E1"/>
<path fill-rule="evenodd" clip-rule="evenodd" d="M15.4548 26.2562L15.0723 27.0546H15.3602L15.7428 26.2562H15.4548Z" fill="#DEE0E1"/>
<path fill-rule="evenodd" clip-rule="evenodd" d="M16.031 26.2562L15.6484 27.0546H15.9407L16.3189 26.2562H16.031Z" fill="#DEE0E1"/>
<path fill-rule="evenodd" clip-rule="evenodd" d="M18.3435 26.2562L17.9609 27.0546H18.2489L18.6314 26.2562H18.3435Z" fill="#DEE0E1"/>
<path fill-rule="evenodd" clip-rule="evenodd" d="M18.9235 26.2562L18.541 27.0546H18.829L19.2072 26.2562H18.9235Z" fill="#DEE0E1"/>
<path fill-rule="evenodd" clip-rule="evenodd" d="M17.7673 26.2562L17.3848 27.0546H17.6727L18.0553 26.2562H17.7673Z" fill="#DEE0E1"/>
<path fill-rule="evenodd" clip-rule="evenodd" d="M21.1426 27.0546H21.4305L21.8131 26.2562H21.5251L21.1426 27.0546Z" fill="#DEE0E1"/>
<path fill-rule="evenodd" clip-rule="evenodd" d="M16.611 26.2562L16.2285 27.0546H16.5165L16.899 26.2562H16.611Z" fill="#DEE0E1"/>
<path fill-rule="evenodd" clip-rule="evenodd" d="M17.1872 26.2562L16.8047 27.0546H17.097L17.4752 26.2562H17.1872Z" fill="#DEE0E1"/>
<path fill-rule="evenodd" clip-rule="evenodd" d="M15.8821 21.954C15.8578 21.9495 15.8328 21.9527 15.8104 21.9633C15.788 21.9739 15.7693 21.9914 15.7568 22.0133C15.7443 22.0352 15.7387 22.0606 15.7406 22.0859C15.7425 22.1113 15.7519 22.1354 15.7676 22.155C15.7832 22.1747 15.8043 22.1889 15.8281 22.1958C15.8518 22.2026 15.877 22.2018 15.9002 22.1935C15.9235 22.1851 15.9437 22.1695 15.9581 22.1489C15.9726 22.1283 15.9805 22.1036 15.9809 22.0782C15.9833 22.0483 15.9744 22.0186 15.9559 21.9954C15.9374 21.9722 15.9109 21.9574 15.8821 21.954Z" fill="#DEE0E1"/>
<path fill-rule="evenodd" clip-rule="evenodd" d="M17.9966 3.9074C18.9475 3.8807 19.8806 4.17674 20.6527 4.75008C20.774 4.10478 21.007 3.4873 21.3404 2.92723L20.3863 3.03811L19.8877 1.94262L18.9292 2.4571L17.9966 1.50354L17.0682 2.4571L16.1012 1.94262L15.5983 3.03811L14.6484 2.92723C14.9827 3.48687 15.2157 4.10451 15.3361 4.75008C16.1094 4.17581 17.0442 3.87973 17.9966 3.9074ZM15.7702 3.46388L16.2258 2.47041L17.0854 2.91392L17.9966 1.99141L18.9292 2.94053L19.7888 2.49702L20.2186 3.4905L20.7774 3.40179C20.6314 3.67527 20.5133 3.96362 20.4249 4.26222C19.6814 3.83378 18.8439 3.60887 17.9923 3.60887C17.1406 3.60887 16.3032 3.83378 15.5596 4.26222C15.4715 3.96352 15.3534 3.67514 15.2072 3.40179L15.7702 3.46388Z" fill="#DEE0E1"/>
<path fill-rule="evenodd" clip-rule="evenodd" d="M18.9667 1.94705C19.0001 1.95009 19.0336 1.9463 19.0655 1.93588C19.0974 1.92547 19.127 1.90865 19.1526 1.88639C19.1782 1.86413 19.1992 1.83686 19.2145 1.80617C19.2298 1.77548 19.2391 1.74196 19.2418 1.70755C19.2085 1.52316 19.1445 1.34611 19.0527 1.1842C19.0527 1.1842 18.7475 1.52128 18.739 1.6632C18.7341 1.73122 18.7553 1.7985 18.7978 1.85069C18.8404 1.90288 18.901 1.93586 18.9667 1.94262" fill="#DEE0E1"/>
<path fill-rule="evenodd" clip-rule="evenodd" d="M20.5283 2.53246C20.5877 2.56373 20.6566 2.56963 20.7201 2.54888C20.7836 2.52813 20.8367 2.4824 20.8678 2.42158C20.9061 2.23947 20.9134 2.05187 20.8893 1.86719C20.8893 1.86719 20.4853 2.05346 20.4208 2.18208C20.3917 2.24354 20.3865 2.31424 20.4065 2.37949C20.4266 2.44474 20.4702 2.49952 20.5283 2.53246Z" fill="#DEE0E1"/>
<path fill-rule="evenodd" clip-rule="evenodd" d="M17.0149 1.94701C17.0815 1.94135 17.1432 1.90883 17.1866 1.85652C17.2301 1.80421 17.2518 1.73632 17.247 1.6676C17.247 1.52124 16.9333 1.1886 16.9333 1.1886C16.8417 1.35062 16.7777 1.52763 16.7441 1.71195C16.7496 1.78061 16.7811 1.84428 16.8318 1.88912C16.8825 1.93395 16.9483 1.95635 17.0149 1.95145" fill="#DEE0E1"/>
<path fill-rule="evenodd" clip-rule="evenodd" d="M15.4519 2.53246C15.5101 2.49959 15.5535 2.4445 15.5728 2.379C15.592 2.31349 15.5857 2.2428 15.555 2.18208C15.4906 2.05346 15.0866 1.86719 15.0866 1.86719C15.0638 2.05213 15.0725 2.23974 15.1124 2.42158C15.1273 2.45212 15.1481 2.47926 15.1733 2.50142C15.1986 2.52358 15.2279 2.54032 15.2595 2.55064C15.2912 2.56097 15.3245 2.56468 15.3575 2.56156C15.3905 2.55844 15.4226 2.54855 15.4519 2.53246Z" fill="#DEE0E1"/>
<path fill-rule="evenodd" clip-rule="evenodd" d="M34.2083 11.4027C34.534 11.2581 34.7917 10.9874 34.926 10.6488C34.0664 10.5201 31.8272 9.54884 29.9747 10.3427C30.6667 9.66415 31.2899 9.57545 31.3501 8.59971C31.4251 8.67212 31.5151 8.7258 31.6134 8.7566C31.7116 8.7874 31.8154 8.79451 31.9168 8.77737C32.0181 8.76022 32.1143 8.71929 32.1978 8.65773C32.2814 8.59617 32.3502 8.51562 32.3988 8.4223C32.2097 7.8413 31.724 8.31142 31.6595 8.15176C31.5951 7.99209 32.2656 8.22272 32.4203 7.46431C31.8744 7.26916 31.7111 7.73042 31.6123 7.62397C31.5134 7.51753 31.9604 7.32682 31.6381 6.73694C31.0707 7.07845 31.3673 7.46874 31.2469 7.50866C31.1266 7.54857 31.2169 7.09619 30.585 7.11836C30.5249 7.81468 31.1782 7.83686 31.0664 7.94774C30.9547 8.05862 30.7699 7.54857 30.2928 7.81912C30.2849 7.9364 30.3048 8.05391 30.3508 8.16146C30.3968 8.26902 30.4675 8.36336 30.5569 8.43633C30.6462 8.50929 30.7515 8.55867 30.8635 8.58019C30.9755 8.6017 31.0909 8.5947 31.1997 8.55979C31.1266 9.62867 30.1767 9.44683 29.4805 10.6355C30.9805 11.4293 31.6553 12.8131 32.5793 13.7667C32.9066 13.4021 33.1842 12.9933 33.4045 12.5514C33.5172 12.6684 33.6511 12.7612 33.7986 12.8245C33.9462 12.8878 34.1044 12.9204 34.2641 12.9204C34.4239 12.9204 34.5821 12.8878 34.7296 12.8245C34.8772 12.7612 35.0111 12.6684 35.1237 12.5514C34.7799 12.1878 34.767 11.9128 34.2426 11.416L34.2083 11.4027ZM32.7899 11.6112C32.9013 11.8847 32.9432 12.1831 32.9117 12.478C32.8801 12.773 32.776 13.0547 32.6094 13.2966C32.1643 12.3012 31.5007 11.4265 30.671 10.7419C30.5335 10.6532 30.7441 10.4891 31.1266 10.4403C32.2828 10.2141 33.6323 10.7197 34.277 10.8838C34.0309 11.0902 33.7326 11.2195 33.4174 11.2564C33.8183 11.5772 34.1716 11.9567 34.4661 12.3829C34.0106 12.4982 33.757 12.2055 32.7813 11.5979" fill="#DEE0E1"/>
<path fill-rule="evenodd" clip-rule="evenodd" d="M23.1276 29.4274V28.1234C21.9112 28.6778 20.6115 29.0124 19.2852 29.1125L19.2122 29.5781C19.3497 29.5781 19.5216 29.6136 19.7494 29.6314C18.5687 29.7987 17.3714 29.7987 16.1907 29.6314C16.4185 29.6314 16.5904 29.6003 16.7279 29.5781L16.6548 29.1125C15.3372 29.0101 14.0464 28.6756 12.8382 28.1234V29.4274L11.5488 29.9906C12.643 30.5591 13.7967 30.9966 14.9872 31.2946L14.8325 31.8401C16.9236 32.4479 19.1368 32.4479 21.2279 31.8401L21.0732 31.2946C22.2637 30.9965 23.4173 30.5591 24.5116 29.9906L23.1276 29.4274ZM12.2365 30.0217L13.1305 29.6491V28.5847C13.9143 28.8825 14.7208 29.1124 15.5417 29.2721L15.0345 30.9797C14.073 30.7543 13.1356 30.4304 12.2365 30.0128V30.0217ZM17.9958 31.9864C17.038 31.9803 16.0844 31.8567 15.1548 31.6183L15.6921 29.8443C17.2159 30.1073 18.7714 30.1073 20.2952 29.8443L20.8325 31.6183C19.9029 31.8562 18.9493 31.9798 17.9915 31.9864H17.9958ZM20.9485 30.9885L20.4371 29.2721C21.2582 29.1096 22.0647 28.8766 22.8483 28.5758V29.6402L23.7422 30.0128C22.8436 30.4317 21.9061 30.7556 20.9442 30.9797" fill="#DEE0E1"/>
<path fill-rule="evenodd" clip-rule="evenodd" d="M2.59223 12.5337C2.81284 12.9754 3.09044 13.3842 3.41745 13.749C4.34152 12.7954 5.0206 11.4116 6.5163 10.6178C5.80713 9.41582 4.85728 9.6154 4.7971 8.54209C4.90559 8.57503 5.02015 8.58054 5.13114 8.55818C5.24212 8.53581 5.34626 8.48622 5.43476 8.41359C5.52327 8.34096 5.59354 8.24743 5.63965 8.14088C5.68576 8.03434 5.70635 7.9179 5.69968 7.80142C5.22261 7.53087 5.05498 8.06753 4.92604 7.93004C4.7971 7.79255 5.47189 7.79698 5.40742 7.10066C4.77991 7.10066 4.89596 7.54418 4.74553 7.49096C4.5951 7.43774 4.92175 7.04744 4.35441 6.71924C4.03206 7.33129 4.47046 7.522 4.3802 7.60627C4.28994 7.69054 4.11802 7.25146 3.57218 7.44661C3.71831 8.20059 4.43177 7.89012 4.32862 8.13406C4.22547 8.37799 3.77848 7.8236 3.58937 8.4046C3.63752 8.49784 3.70584 8.57837 3.78904 8.63995C3.87223 8.70152 3.96807 8.74248 4.06909 8.75964C4.17011 8.7768 4.27361 8.7697 4.37154 8.73889C4.46948 8.70809 4.55921 8.6544 4.63378 8.58201C4.69395 9.56218 5.31716 9.64202 6.00914 10.325C4.1567 9.53114 1.90455 10.5069 1.05785 10.6311C1.19273 10.9683 1.45046 11.2374 1.77561 11.3806C1.25126 11.8818 1.23837 12.1568 0.916016 12.516C0.916016 12.516 1.61659 13.3099 2.63521 12.516L2.59223 12.5337ZM1.5865 12.3652C1.881 11.9375 2.23594 11.5578 2.63951 11.2387C2.32415 11.1996 2.02604 11.0689 1.77991 10.8617C2.42461 10.6843 3.77848 10.1831 4.93034 10.4182C5.30856 10.4714 5.52347 10.6311 5.38593 10.7198C4.5546 11.4038 3.88939 12.2785 3.44324 13.2744C3.27699 13.0324 3.17319 12.7507 3.14161 12.4558C3.11003 12.161 3.15171 11.8627 3.26272 11.5891C2.28708 12.1967 2.03349 12.4761 1.57791 12.3741" fill="#DEE0E1"/>
<path fill-rule="evenodd" clip-rule="evenodd" d="M17.1797 11.8064V12.383C17.2543 12.3107 17.3434 12.2561 17.4407 12.2232C17.538 12.1902 17.6411 12.1797 17.7427 12.1923V13.0217C17.7404 13.2267 17.6887 13.4278 17.5923 13.6071H18.396C18.2983 13.4282 18.2452 13.227 18.2413 13.0217V12.1879C18.343 12.175 18.4461 12.1854 18.5435 12.2183C18.6408 12.2513 18.7299 12.306 18.8043 12.3786V11.802H17.1797V11.8064Z" fill="#DEE0E1"/>
<path d="M35.5702 12.0504C35.4801 11.9502 35.4008 11.8401 35.3338 11.7222L35.1963 11.5093C35.3393 11.3375 35.4567 11.1447 35.5444 10.9371L35.9054 10.0944L35.0244 9.96139C34.8739 9.93921 34.6332 9.87269 34.3539 9.79729C33.7005 9.60556 33.0338 9.46617 32.3596 9.38038C32.6297 9.25358 32.8517 9.03847 32.9914 8.76833L33.1375 8.49778C33.1375 8.49778 33.0989 8.1208 32.957 8.00105C33.0135 7.87809 33.0554 7.74853 33.0817 7.61519L33.202 7.012L32.639 6.81242C32.5536 6.78247 32.4659 6.76021 32.3768 6.74589C32.3414 6.62437 32.2938 6.50695 32.235 6.39551L31.8911 5.76572L31.2851 6.1294C31.1446 6.21269 31.0171 6.31735 30.9069 6.43987C30.8119 6.42184 30.7155 6.41293 30.6189 6.41325C30.3726 6.395 30.1252 6.42973 29.8925 6.51526L29.4069 5.99635L28.8309 5.36212C28.5858 5.07322 28.2589 4.87111 27.8964 4.78436C27.534 4.69761 27.1542 4.73061 26.8109 4.87869C26.6222 4.69455 26.3991 4.552 26.1552 4.45973C25.9114 4.36747 25.6519 4.32742 25.3926 4.34203C25.2055 4.34366 25.0189 4.35848 24.8338 4.38638C24.2931 4.49236 23.7855 4.7329 23.3553 5.08714L22.7106 4.76781C22.4287 5.20136 22.0164 5.52711 21.5373 5.69476C21.486 5.48852 21.3971 5.29432 21.2751 5.12262L21.3181 4.87425C21.4234 4.32205 21.6228 3.79348 21.9069 3.31307L22.6762 2.07566L21.5845 2.21758C21.5926 2.08466 21.5926 1.95134 21.5845 1.81842L21.4857 0.855988L20.6261 1.25515C20.5315 1.2995 20.4499 1.34386 20.3768 1.38377L20.2092 1.01122L19.8181 1.21967C19.7716 1.10271 19.7185 0.98868 19.659 0.878164L19.1948 0L18.5544 0.714062C18.49 0.78946 18.4341 0.855988 18.3825 0.91808L17.9914 0.518915L17.6003 0.922515C17.553 0.855988 17.4971 0.78946 17.4327 0.718497L16.788 0L16.3324 0.860423C16.2733 0.971126 16.2202 1.08514 16.1734 1.20193L15.7822 0.993478L15.6103 1.36603L15.361 1.23741L14.5014 0.838247L14.4069 1.80511C14.3986 1.93803 14.3986 2.07136 14.4069 2.20428L13.3109 2.07566L14.0845 3.31307C14.3669 3.79503 14.5634 4.32527 14.6648 4.87869L14.7034 5.12706C14.5811 5.30014 14.4921 5.49588 14.4413 5.70363C13.987 5.48664 13.5859 5.16677 13.2679 4.76781L12.606 5.09157C12.028 4.61477 11.313 4.34956 10.5731 4.3376C10.3151 4.32084 10.0566 4.36036 9.81447 4.45359C9.57231 4.54682 9.3519 4.69167 9.16762 4.87869C8.8258 4.73215 8.44814 4.69954 8.08748 4.78543C7.72681 4.87132 7.40119 5.0714 7.15616 5.35768C7.15616 5.35768 6.82092 5.76572 6.58023 5.98748C6.41281 6.15712 6.22673 6.30597 6.02579 6.431C5.71232 6.36577 5.3894 6.36577 5.07593 6.431C4.95772 6.30646 4.82141 6.20172 4.67192 6.12053L4.08739 5.76572L3.75215 6.40438C3.69314 6.51419 3.6456 6.63016 3.61031 6.75033C3.52124 6.76473 3.43353 6.78699 3.34814 6.81686L2.7894 7.01644L2.90544 7.61519C2.93043 7.75031 2.97233 7.8815 3.03009 8.00548C2.9964 8.07111 2.96766 8.13932 2.94413 8.2095L2.84957 8.50222L2.9957 8.77277C3.1341 9.04497 3.35639 9.26188 3.62751 9.38925C2.95333 9.47494 2.28658 9.61432 1.63324 9.80616C1.35387 9.88156 1.11318 9.94808 0.962752 9.97026L0.077364 10.1033L0.279369 10.5734L0.442693 10.946C0.534137 11.1586 0.655822 11.3559 0.803725 11.5314C0.688319 11.7184 0.563507 11.899 0.429799 12.0725L0 12.5427L0.429799 13.0305C0.601183 13.2119 0.805579 13.3566 1.03127 13.4563C1.25696 13.556 1.4995 13.6088 1.74499 13.6115C1.96186 13.611 2.17703 13.572 2.38109 13.4962C2.56001 13.8145 2.78958 14.0993 3.06017 14.3389C2.63655 14.8747 2.10391 15.3077 1.5 15.6074L0.936961 15.8823L1.17765 16.5432C1.26317 16.7852 1.40327 17.0027 1.58638 17.1777C1.76948 17.3528 1.99032 17.4804 2.23066 17.55C2.11242 17.9011 2.02187 18.2615 1.95989 18.6277C1.83095 19.4127 1.77937 19.7365 1.10029 19.9583L0.498567 20.1756L0.670486 20.8054C0.757618 21.2181 0.952299 21.5984 1.23352 21.9053L0.83381 22.3488C1.38829 22.7687 2.02985 23.0496 2.70774 23.1693C2.91834 23.1878 3.13035 23.1606 3.33019 23.0896C3.53003 23.0186 3.71328 22.9052 3.86819 22.7569C4.01754 23.2608 4.20879 23.7505 4.43983 24.2205C4.86963 25.1297 5.08453 25.6708 4.80086 26.1631L4.16905 27.2719L5.41547 27.2186C5.92379 27.2156 6.43056 27.1607 6.92837 27.0545C6.92975 27.0782 6.92975 27.1019 6.92837 27.1255L6.82092 28.0835L7.91261 27.844C8.02436 27.8097 8.13238 27.7637 8.23496 27.7065C8.66159 28.188 9.1849 28.5676 9.76838 28.8189C10.3519 29.0701 10.9814 29.187 11.6132 29.1612H11.7034L9.91977 29.9152L11.2092 30.6115C12.1309 31.0985 13.0969 31.4907 14.0931 31.7824L13.9427 32.3191L14.596 32.5142C16.8117 33.1619 19.1582 33.1619 21.3739 32.5142L22.0229 32.3191L21.8639 31.7824C22.8663 31.4889 23.8381 31.0937 24.765 30.6027L26.0544 29.9063L24.2708 29.1524H24.361C24.9921 29.1777 25.6209 29.0607 26.2037 28.8095C26.7864 28.5582 27.309 28.1788 27.735 27.6976C27.8378 27.7542 27.9458 27.8002 28.0573 27.8351L29.149 28.0746L29.0501 27.1211C29.0501 27.0989 29.0501 27.0767 29.0501 27.0501C29.5394 27.1557 30.0374 27.2122 30.5372 27.2186L31.7837 27.2719L31.1562 26.1675C30.8725 25.6752 31.1003 25.1341 31.5172 24.2249C31.7487 23.7551 31.94 23.2654 32.0888 22.7613C32.3125 22.9367 32.5707 23.0593 32.8453 23.1205C32.9728 23.1579 33.104 23.1803 33.2364 23.1871C33.6708 23.2069 34.0983 23.0688 34.4441 22.7968L35.1318 22.3533L34.7278 21.9097C35.0066 21.6136 35.2039 21.2462 35.2994 20.8453L35.4713 20.2111L34.8696 19.9937C34.1991 19.7498 34.1476 19.426 34.01 18.6632C33.9588 18.2933 33.8783 17.9284 33.7693 17.5721C34.0097 17.5026 34.2305 17.375 34.4136 17.1999C34.5967 17.0249 34.7368 16.8073 34.8223 16.5654L35.063 15.9045L34.5 15.6295C33.8961 15.3299 33.3635 14.8968 32.9398 14.3611C33.2115 14.1215 33.4425 13.8366 33.6232 13.5184C33.8259 13.5937 34.0396 13.6327 34.255 13.6337C34.5005 13.6312 34.7431 13.5785 34.9689 13.4788C35.1946 13.3791 35.399 13.2343 35.5702 13.0527L36 12.5648L35.5702 12.0504Z" fill="white"/>
<path fill-rule="evenodd" clip-rule="evenodd" d="M12.4946 20.6547V15.3325C12.477 14.8356 12.3736 14.346 12.1895 13.8866H16.1909C16.4103 14.1585 16.685 14.3772 16.9955 14.5273C17.3059 14.6774 17.6446 14.7552 17.9875 14.7552C18.3303 14.7552 18.669 14.6774 18.9794 14.5273C19.2899 14.3772 19.5646 14.1585 19.784 13.8866H23.7897C23.604 14.3455 23.5006 14.8354 23.4846 15.3325V20.6547H12.4946ZM17.996 27.9416C17.4373 27.3651 17.0376 27.303 15.529 27.303C13.7281 27.303 12.5204 26.2119 12.5204 24.4689V20.9651H23.5104V24.4556C23.5104 26.1986 22.2897 27.2897 20.5018 27.2897C18.9932 27.2897 18.5935 27.3518 18.0347 27.9283" fill="#FCE527"/>
<path d="M13.1303 28.5891V29.6536L12.2363 30.0261C13.1353 30.4443 14.0726 30.7682 15.0343 30.993L15.5415 29.2721C14.7206 29.1088 13.9141 28.8759 13.1303 28.5758" fill="white"/>
<path d="M17.9953 30.0261C17.2229 30.036 16.4515 29.9692 15.6915 29.8265L15.1543 31.6006C17.0168 32.0931 18.9695 32.0931 20.8319 31.6006L20.2947 29.8265C19.5362 29.9689 18.7662 30.0358 17.9953 30.0261Z" fill="white"/>
<path d="M22.8487 28.5891C22.0645 28.8847 21.258 29.1132 20.4375 29.2721L20.9447 30.9752C21.9051 30.7509 22.8411 30.427 23.7384 30.0084L22.8444 29.6358L22.8487 28.5891Z" fill="white"/>
<path d="M11.2599 11.4382C12.661 10.6443 16.0822 8.94124 13.7613 7.09621C13.4432 6.84341 13.0951 6.61722 12.8028 6.3378C12.4418 6.62609 12.9404 7.34015 13.065 7.60182C13.065 7.60182 12.2914 7.68166 12.1066 7.68166C10.9117 7.68166 9.66101 6.94542 10.2971 5.54834C9.82003 5.65035 9.76416 6.12048 9.61803 6.52408C9.31287 6.31119 8.78422 5.85437 8.37591 5.92089C8.70685 7.01638 10.0951 8.00099 11.1868 8.22275C10.0908 8.83924 8.06216 9.29606 6.99625 7.96994C6.2484 9.46459 7.29281 10.09 8.31144 10.875C4.41745 12.7067 4.98909 14.7646 2.43608 16.3879C2.76703 16.5476 4.24553 16.2282 4.37877 16.2061C4.0016 16.6406 3.66755 17.1131 3.38164 17.6164C3.19681 18.1137 3.06985 18.6318 3.00341 19.1599C2.96919 19.5196 2.85027 19.8653 2.657 20.1667C2.46373 20.4682 2.20198 20.7164 1.89453 20.8896C2.19539 21.4529 2.86158 21.0138 3.14095 20.9384C3.0685 21.3117 2.93941 21.671 2.75843 22.0028C4.06932 21.9141 3.4633 19.0579 4.77849 19.7453C4.86428 19.7896 4.94074 19.8509 5.00345 19.9258C5.06615 20.0006 5.11387 20.0876 5.14384 20.1816C5.17381 20.2756 5.18544 20.3748 5.17805 20.4735C5.17067 20.5722 5.14443 20.6684 5.10084 20.7565C4.24124 22.5927 6.19682 24.2115 6.09367 25.8215C6.57505 25.8215 7.07361 25.8215 7.38307 25.134C7.60016 25.5386 7.78695 25.9597 7.94181 26.3936L8.33293 25.7062C8.4825 26.3319 8.82236 26.8916 9.30268 27.3035C9.783 27.7153 10.3785 27.9576 11.002 27.9947C10.3358 26.9081 11.1352 25.4268 9.51917 23.8523C9.81619 23.6407 10.0951 23.4033 10.353 23.1427C8.37161 23.3822 6.29998 21.7633 7.24124 20.996C7.85585 20.4949 8.12232 21.5371 9.07218 21.3597L8.70255 21.0315C8.83149 20.8985 8.98192 20.7255 9.13235 20.588C8.83024 20.5355 8.53933 20.4289 8.27275 20.2731L8.51344 19.8651C6.19253 19.8651 6.13235 18.0289 7.07361 17.9579C7.50341 17.9225 8.08794 18.7651 9.51917 18.5922C9.3601 18.3393 9.24383 18.0603 9.17534 17.7672C9.54325 17.768 9.90842 17.702 10.2541 17.5721C9.55786 17.4789 9.39453 17.2394 8.79711 16.7826L9.4719 16.5254C8.53923 16.0242 8.58651 15.1416 8.53923 14.228C9.05069 14.534 9.65241 15.0041 10.2971 14.7824C10.4518 14.7291 10.5464 14.6582 10.5507 14.4941C9.63092 14.1215 9.04639 12.6624 11.2427 11.4382H11.2599ZM9.56645 11.5802C8.34152 12.9329 8.87018 13.7445 9.13665 13.9929C8.68106 13.8909 7.99768 13.2921 8.15241 12.7111C8.00628 12.893 7.86015 13.0837 7.72261 13.2877C7.41745 13.7046 7.14668 14.1171 6.90599 14.5163C6.53636 15.6561 7.21545 16.8358 8.37591 17.3592C7.87228 17.2849 7.40983 17.0308 7.06901 16.641C6.7282 16.2512 6.53059 15.7505 6.51058 15.2259C5.95656 16.2029 5.6533 17.3096 5.62949 18.4414C5.64055 18.7636 5.66925 19.0849 5.71545 19.4038C6.01201 19.9848 6.48909 20.1977 7.33579 20.2908C6.56645 20.3396 6.15814 20.2908 5.8229 19.9405C6.34725 22.2645 8.79711 24.2825 9.79854 26.0078C8.80141 24.6772 6.72977 22.6725 6.00341 21.2267C5.95082 22.1699 6.19999 23.1049 6.71258 23.8878C5.78422 22.9475 5.71545 21.5238 5.77562 20.69C5.52313 20.0421 5.38626 19.3524 5.37161 18.6543C5.34931 18.0316 5.394 17.4084 5.50485 16.7959C4.92032 17.6564 4.07361 17.9846 3.65671 19.2929C3.73837 17.6076 4.94611 17.581 5.87018 15.5319C6.26319 14.635 6.74421 13.7819 7.30571 12.9861C6.4848 13.2001 5.75059 13.6767 5.20829 14.3477C5.80141 12.8974 9.23121 11.2697 10.7957 9.69522C10.3229 9.79723 8.3974 9.85045 7.59797 9.29606C9.04639 9.69966 12.2742 9.2384 13.4905 8.37798C12.6309 9.62426 10.8215 9.70853 8.59081 12.1789C8.90537 11.9321 9.24385 11.7196 9.60084 11.5447" fill="white"/>
<path d="M32.9571 19.16C32.8907 18.6318 32.7637 18.1137 32.5788 17.6165C32.3004 17.1099 31.972 16.6343 31.5989 16.1973C31.7321 16.1973 33.2107 16.5388 33.5416 16.3791C30.9843 14.7603 31.5602 12.7023 27.6662 10.8662C28.6892 10.0812 29.7336 9.45581 28.9857 7.96115C27.9198 9.2917 25.8869 8.84819 24.7952 8.21396C25.8783 7.9922 27.2708 7.00316 27.6061 5.91211C27.1763 5.84558 26.6691 6.3024 26.3639 6.51529C26.2178 6.11169 26.1619 5.62825 25.6892 5.53955C26.3253 6.94106 25.0703 7.66843 23.8754 7.67287C23.6906 7.67287 22.9213 7.59303 22.9213 7.59303C23.0459 7.33136 23.5445 6.6173 23.1791 6.32901C22.8869 6.61286 22.543 6.83906 22.225 7.08742C19.9041 8.94133 23.3296 10.6577 24.7307 11.4383C26.927 12.6624 26.3425 14.0994 25.4227 14.4942C25.4227 14.6583 25.5258 14.7292 25.6763 14.7824C26.3167 15.0042 26.9184 14.5296 27.4298 14.228C27.3998 15.1417 27.4599 16.0021 26.4843 16.5255L27.1591 16.7827C26.5788 17.2262 26.4026 17.479 25.7064 17.5722C26.0521 17.7018 26.4173 17.7679 26.7851 17.7673C26.7146 18.0597 26.5985 18.3383 26.4413 18.5923C27.8725 18.7697 28.4485 17.927 28.8869 17.958C29.8281 18.029 29.7723 19.8651 27.447 19.8651L27.6877 20.2732C27.4213 20.4293 27.1303 20.5358 26.8281 20.5881C26.9829 20.7167 27.1333 20.8897 27.2579 21.0316L26.8883 21.3598C27.8339 21.5372 28.1046 20.4728 28.7192 20.9961C29.6562 21.7634 27.5889 23.3822 25.6075 23.1427C25.8656 23.4031 26.1445 23.6405 26.4413 23.8524C24.8253 25.4269 25.6204 26.9126 24.9585 27.9992C25.5819 27.9598 26.1769 27.7161 26.6569 27.3037C27.1369 26.8914 27.4769 26.3318 27.6276 25.7063L28.0187 26.3937C28.1744 25.9601 28.3611 25.5391 28.5774 25.1341C28.8912 25.8083 29.394 25.8216 29.8668 25.8216C29.7594 24.2116 31.7149 22.5928 30.8554 20.7566C30.8113 20.6693 30.7843 20.5738 30.776 20.4757C30.7677 20.3776 30.7783 20.2787 30.807 20.1848C30.8357 20.0909 30.8821 20.0038 30.9435 19.9284C31.0049 19.853 31.0801 19.7908 31.1648 19.7454C32.48 19.0579 31.8697 21.9142 33.1849 22.0029C33.0022 21.6719 32.873 21.3124 32.8023 20.9385C33.0817 21.0139 33.7479 21.4529 34.0488 20.8897C33.7425 20.715 33.4817 20.4664 33.2886 20.1652C33.0955 19.8641 32.9759 19.5192 32.9399 19.16H32.9571ZM30.4814 16.8271C30.5936 17.4393 30.6383 18.0627 30.6147 18.6854C30.5988 19.3834 30.462 20.0729 30.2107 20.7211C30.2708 21.5549 30.2107 22.9786 29.2737 23.9189C29.7851 23.1355 30.0342 22.2009 29.9829 21.2578C29.2565 22.7037 27.1892 24.6995 26.1877 26.0389C27.1892 24.3136 29.6261 22.3001 30.1634 19.9716C29.8238 20.3353 29.4198 20.3708 28.6505 20.322C29.5101 20.2155 29.97 20.0026 30.2665 19.4349C30.3131 19.1161 30.3418 18.7948 30.3525 18.4725C30.3274 17.3404 30.0226 16.2336 29.4671 15.257C29.4471 15.7816 29.2495 16.2823 28.9087 16.6721C28.5679 17.0619 28.1054 17.316 27.6018 17.3903C28.7579 16.867 29.4413 15.6872 29.0717 14.5474C28.831 14.1482 28.5602 13.7402 28.2551 13.3188C28.1046 13.1193 27.9542 12.9241 27.8253 12.7423C27.98 13.3233 27.3009 13.922 26.841 14.024C27.0903 13.7757 27.619 12.964 26.4112 11.6113C26.7685 11.7857 27.107 11.9983 27.4213 12.2455C25.1949 9.76183 23.3639 9.6953 22.5215 8.44459C23.7422 9.30501 26.9657 9.77514 28.4141 9.36267C27.6147 9.91263 25.6849 9.86384 25.2164 9.76183C26.7852 11.3363 30.2235 12.9685 30.8038 14.4143C30.2615 13.7433 29.5273 13.2667 28.7064 13.0527C29.2684 13.8482 29.7494 14.7013 30.1419 15.5985C31.0574 17.6431 32.2909 17.6697 32.3596 19.3595C31.9298 18.029 31.096 17.7185 30.5115 16.8625" fill="white"/>
<path d="M19.7881 13.8821C19.5766 14.1645 19.304 14.3918 18.992 14.5459C18.68 14.6999 18.3373 14.7764 17.9915 14.7691C17.8198 14.7686 17.6485 14.7508 17.4801 14.7159C17.5319 14.9623 17.6638 15.183 17.854 15.3413C17.8203 15.4857 17.8147 15.6357 17.8376 15.7824C17.8605 15.9292 17.9114 16.0698 17.9873 16.196C18.0633 16.3223 18.1628 16.4317 18.2801 16.518C18.3974 16.6042 18.5302 16.6655 18.6706 16.6984C18.7008 16.8532 18.7705 16.9969 18.8725 17.1147C18.9745 17.2324 19.1051 17.3199 19.2509 17.3681L18.8211 17.9048C18.7509 17.9926 18.6609 18.0612 18.5589 18.1045C18.457 18.1478 18.3462 18.1645 18.2365 18.1531L16.2208 17.9181C16.3067 17.6875 16.0746 17.4213 15.4385 17.5367L16.2294 15.2481L15.7265 14.1925L14.811 14.9997L14.7423 17.3992L14.3468 17.1996C13.8397 16.9734 13.6893 17.927 14.1749 17.9314H14.3683C14.3575 17.9771 14.3608 18.0252 14.3778 18.069C14.3947 18.1127 14.4245 18.1499 14.4629 18.1753C14.4387 18.1891 14.4186 18.2094 14.4045 18.2339C14.3905 18.2585 14.3831 18.2865 14.3831 18.315C14.3831 18.3436 14.3905 18.3716 14.4045 18.3961C14.4186 18.4207 14.4387 18.4409 14.4629 18.4547C14.4371 18.4701 14.4152 18.4915 14.3987 18.5171C14.3823 18.5427 14.3718 18.5718 14.368 18.6023C14.3643 18.6328 14.3674 18.6637 14.3771 18.6928C14.3869 18.7218 14.403 18.7481 14.4242 18.7696C14.3898 18.8271 14.3685 18.8919 14.362 18.9591C14.3555 19.0263 14.364 19.0942 14.3868 19.1575C14.4096 19.2208 14.4461 19.2779 14.4936 19.3245C14.541 19.371 14.5982 19.4058 14.6606 19.426C14.9529 19.5059 15.1334 19.1821 15.1936 18.9825L18.3311 19.9849C18.5252 20.0562 18.7351 20.0681 18.9356 20.0194C19.1361 19.9706 19.3187 19.8631 19.4615 19.7099L20.2781 18.9692C20.215 19.1704 20.2237 19.3882 20.3025 19.5833C20.3813 19.7785 20.5251 19.9382 20.7079 20.0337C20.6796 20.2408 20.6681 20.4499 20.6735 20.659H23.4973V15.3368C23.5129 14.8383 23.6163 14.3468 23.8024 13.8865H19.7967L19.7881 13.8821Z" fill="white"/>
<path d="M15.0894 22.8411L15.1496 22.921C15.2355 23.0274 15.2828 23.0052 15.3817 22.9476L15.5235 22.8677C15.6138 22.7968 16.1983 23.0274 16.2284 22.5262C16.2928 22.8988 15.863 23.6882 16.1209 24.1273L16.4691 24.7216H15.3258C15.2783 24.7212 15.2317 24.7353 15.1919 24.7621C15.1522 24.789 15.121 24.8273 15.1023 24.8724L14.8014 25.5111C14.7676 25.5808 14.7521 25.6586 14.7566 25.7364C14.7612 25.8143 14.7855 25.8896 14.8272 25.9546L15.0292 26.1897C15.1289 26.0984 15.2044 25.9824 15.2484 25.8526L15.1582 25.7595C15.1253 25.7316 15.1035 25.6922 15.0972 25.6488C15.0908 25.6053 15.1003 25.561 15.1238 25.5244L15.3086 25.1297C15.317 25.0977 15.332 25.068 15.3526 25.0425C15.3731 25.0171 15.3988 24.9965 15.4277 24.9822C15.4567 24.9679 15.4883 24.9602 15.5204 24.9596C15.5525 24.959 15.5843 24.9656 15.6138 24.9789L16.5378 25.1829C16.6066 25.1829 16.714 25.2361 16.7828 25.1164C16.8339 25.0276 16.9133 24.96 17.0074 24.9252C17.1016 24.8904 17.2045 24.8906 17.2986 24.9257C17.8057 25.0055 18.9791 25.1297 19.396 24.6241C19.886 25.2982 20.8444 25.2982 20.7842 25.6486L20.5736 26.8417H20.8788L21.0636 25.6619C21.0636 25.5244 21.1668 25.3337 21.0206 25.2184C20.9605 25.1696 20.9347 25.1474 20.8014 24.9079C20.6252 24.593 20.6381 24.1229 20.4662 23.7149C20.5178 23.6344 20.5903 23.5705 20.6754 23.5305C20.7605 23.4905 20.8549 23.476 20.9476 23.4887C21.2871 23.5729 21.3774 24.1761 21.8587 24.6684C21.8233 24.4388 21.7582 24.215 21.6653 24.0031C21.856 24.1522 22.0044 24.3513 22.0951 24.5797C22.1054 24.6709 22.1359 24.7584 22.1844 24.8353C22.2328 24.9123 22.2979 24.9766 22.3745 25.0232C22.4863 25.0676 22.6238 25.0232 22.757 24.8414C22.757 24.8414 22.439 24.3979 22.2069 24.0741C22.069 23.8387 21.8758 23.6429 21.6451 23.5049C21.4145 23.367 21.1539 23.2912 20.8874 23.2846C20.7002 23.3122 20.5212 23.3818 20.363 23.4887C19.7055 23.1072 19.194 23.4887 18.992 23.4887L17.7628 23.4133C17.5866 23.3722 17.4327 23.2626 17.333 23.1072C17.3428 22.7562 17.2322 22.4129 17.0207 22.1378C16.8092 21.8628 16.5103 21.6736 16.1768 21.6037C16.1768 21.6037 16.2026 21.4086 16.1295 21.342L15.8716 21.6747L15.1582 21.4041L15.7169 21.8787L15.1109 22.6194C15.086 22.6462 15.0705 22.6807 15.0666 22.7176C15.0627 22.7545 15.0707 22.7917 15.0894 22.8234" fill="white"/>
<path d="M14.2826 24.3491C14.1107 24.4865 14.1193 24.6773 14.2224 24.8946L14.3256 25.0942L14.5963 24.8813L14.5362 24.7438C14.5112 24.7037 14.501 24.6558 14.5073 24.6086C14.5136 24.5614 14.536 24.5181 14.5706 24.4865L14.9574 24.1849C14.9908 24.1511 15.0321 24.1268 15.0773 24.1144C15.1224 24.102 15.17 24.1018 15.2153 24.114L16.0276 24.2914C15.9542 24.177 15.899 24.0512 15.8643 23.9188L15.0992 23.8168C15.0493 23.8129 14.9991 23.8203 14.9523 23.8388C14.9055 23.8572 14.8632 23.886 14.8284 23.9233L14.2826 24.3491Z" fill="white"/>
<path d="M19.4863 26.8416H19.7915L20.2858 25.5865C20.3037 25.5526 20.3238 25.52 20.3459 25.4889C20.16 25.4158 19.9802 25.3268 19.8087 25.2228C19.9333 25.3957 20.0279 25.4667 19.9763 25.6264L19.4863 26.8416Z" fill="white"/>
<path d="M19.7457 9.86825L20.3131 6.48865L18.1641 7.24706V10.7331L19.7457 9.86825ZM18.5208 7.58857L19.9563 7.04304C19.9563 7.04304 19.677 7.27811 19.346 7.51317C19.0847 7.68421 18.8102 7.83256 18.5251 7.95669L18.5208 7.58857ZM18.5208 8.40464L19.8102 7.92121C19.6599 8.07304 19.4958 8.20967 19.3202 8.32924C19.0586 8.49964 18.7841 8.64797 18.4993 8.77276L18.5208 8.40464ZM18.5208 9.29167L19.6727 8.84816C19.6727 8.84816 19.6727 8.99452 19.3417 9.22515C19.0804 9.39606 18.8058 9.54441 18.5208 9.66866V9.29167Z" fill="white"/>
<path d="M15.902 12.862L15.9492 12.9419H16.379V13.0217C16.386 13.1017 16.4019 13.1805 16.4263 13.2568C16.5076 13.5051 16.6569 13.7239 16.8561 13.8866C17.1741 14.1397 17.568 14.2699 17.9693 14.2547C19.0309 14.2547 19.5123 13.545 19.5596 13.0217V12.9419H19.9894L20.0366 12.862C20.4664 12.1835 20.9693 11.4339 21.5624 11.323L19.9378 10.3517L17.9951 11.465L16.0051 10.3473L14.3848 11.3186C14.9779 11.425 15.4894 12.179 15.9106 12.8576" fill="white"/>
<path d="M17.8228 10.7287V7.24267L15.6738 6.48425L16.2412 9.86385L17.8228 10.7287ZM17.4618 9.63322C17.1769 9.50873 16.9023 9.3604 16.6409 9.18971C16.3056 8.95464 16.3056 8.80828 16.3056 8.80828L17.4618 9.2518V9.63322ZM17.4618 7.58418V7.94342C17.1767 7.81929 16.9021 7.67095 16.6409 7.49991C16.3056 7.26484 16.0263 7.02978 16.0263 7.02978L17.4618 7.58418ZM17.4618 8.40025V8.75949C17.1769 8.63509 16.9023 8.48675 16.6409 8.31598C16.4651 8.19672 16.301 8.06006 16.1509 7.90794L17.4618 8.40025Z" fill="white"/>
<path d="M17.9963 4.99402C16.7628 4.99402 15.8473 5.41092 15.6367 5.88105L17.9963 6.86123L20.3516 5.89879C20.1496 5.41092 19.2298 5.01176 17.9963 5.01176" fill="white"/>
<path d="M17.9964 3.60134C18.8475 3.60422 19.6842 3.82845 20.4291 4.25331C20.5164 3.95432 20.6346 3.66586 20.7815 3.39289L20.2228 3.48159L19.793 2.48811L18.9334 2.93163L17.9964 2.00024L17.0681 2.94937L16.2085 2.50585L15.7658 3.48159L15.207 3.39289C15.3535 3.66609 15.4717 3.9545 15.5595 4.25331C16.3056 3.82773 17.1439 3.60347 17.9964 3.60134Z" fill="white"/>
<path d="M33.382 11.2609C33.6974 11.2218 33.9955 11.091 34.2416 10.8839C33.5969 10.7065 32.2473 10.2053 31.0955 10.4404C30.7129 10.4936 30.5023 10.6533 30.6399 10.742C31.4662 11.4302 32.1256 12.308 32.5654 13.3055C32.7316 13.0635 32.8354 12.7818 32.867 12.4869C32.8986 12.1921 32.8569 11.8938 32.7459 11.6201C33.7215 12.2277 33.9751 12.5072 34.4264 12.4051C34.1331 11.9779 33.7796 11.5982 33.3777 11.2786" fill="white"/>
<path d="M3.41298 13.3055C3.85873 12.3093 4.524 11.4345 5.35567 10.7508C5.49321 10.6621 5.27831 10.5025 4.90009 10.4492C3.74822 10.2231 2.39436 10.7287 1.74966 10.8928C1.99603 11.0995 2.29402 11.2302 2.60926 11.2698C2.20713 11.5891 1.85363 11.9688 1.56055 12.3963C2.01613 12.5116 2.26971 12.2189 3.24106 11.6113C3.13242 11.8854 3.09203 12.1833 3.12356 12.4776C3.15509 12.772 3.25754 13.0536 3.42158 13.2966" fill="white"/>
<path fill-rule="evenodd" clip-rule="evenodd" d="M10.164 23.9499C10.5938 23.5817 10.9849 23.3999 10.9678 22.5129C10.293 22.8677 8.38896 22.8499 7.58523 21.7145C7.35744 21.3908 7.58523 21.2311 7.81732 21.4839C8.36317 22.1226 9.3775 21.8343 9.74283 21.648C9.6825 21.4059 9.56428 21.1832 9.39899 21.0005C9.53652 20.8585 9.92764 20.6501 10.0093 20.2908C9.67067 20.1855 9.3219 20.1185 8.96919 20.0913C9.07455 19.9949 9.14935 19.8681 9.18385 19.7273C9.21835 19.5865 9.21094 19.4382 9.1626 19.3018C8.33308 19.5635 7.31446 19.2087 7.07807 18.8938C6.84168 18.5789 7.07807 18.2906 7.27578 18.499C7.70558 18.9425 9.72134 19.457 10.4778 18.6809C10.2092 18.6042 9.97781 18.4272 9.82879 18.1841C10.5294 18.1132 11.0881 17.6874 11.1182 17.1552C10.6523 17.1877 10.1852 17.1119 9.75142 16.9334C9.9074 16.8993 10.0511 16.8211 10.1665 16.7075C10.2818 16.5939 10.3643 16.4495 10.4047 16.2903C9.11532 16.2105 9.02506 15.2303 9.01647 15.0662C9.85028 15.5629 11.3202 15.3412 10.9377 14.1215C10.2457 14.0816 9.54512 12.924 11.4534 11.864C13.1726 10.8972 15.1583 9.85045 14.9821 8.13404C14.8703 7.03412 13.1125 6.28457 12.8933 5.72574C12.1626 6.08499 12.0337 6.5019 12.3431 7.20265C12.3431 7.20265 10.7099 7.37119 10.5809 6.31562C10.5807 6.0795 10.6315 5.84631 10.7297 5.63301C10.8278 5.41972 10.9708 5.2317 11.1483 5.08264C10.9635 5.08264 9.73423 4.74113 9.3646 5.77453C8.67692 5.2911 8.07521 5.30884 7.62392 5.81888C8.36317 6.2624 8.82306 7.82801 10.048 8.28927C9.18839 8.77714 7.77005 8.57312 6.94483 7.07403C6.1669 8.28483 5.7199 9.48233 7.37463 10.7597C4.33595 12.1878 4.36603 14.911 1.71847 16.2105C1.98494 16.9512 2.55228 16.9512 3.27005 16.8358C2.12678 18.366 3.10242 19.9715 1.29297 20.6235C1.46489 21.2488 1.80443 21.7456 2.47062 21.5637C2.28151 21.8698 2.15687 21.8609 1.8603 22.198C2.84884 22.8411 4.0093 22.3754 4.28437 20.313C4.33165 19.9449 4.82162 20.1755 4.654 20.5348C3.52793 22.9386 6.3732 24.7482 5.36747 26.5089C6.25715 26.469 6.93194 26.3981 7.30157 26.092C7.48615 26.4244 7.57278 26.8051 7.55085 27.1875C7.73498 27.17 7.90706 27.0854 8.03623 26.9489C8.1654 26.8124 8.24322 26.6328 8.25572 26.4424C8.57807 27.4093 9.72563 28.4471 11.5652 28.4471C10.6325 27.0279 11.548 25.5687 10.164 23.9499ZM8.34598 25.7239L7.95486 26.4114C7.8 25.9774 7.61321 25.5563 7.39612 25.1518C7.08237 25.8259 6.5795 25.8392 6.10672 25.8392C6.20558 24.2115 4.24139 22.5927 5.10099 20.7565C5.14506 20.6692 5.17201 20.5737 5.1803 20.4756C5.1886 20.3775 5.17807 20.2787 5.14933 20.1847C5.12059 20.0908 5.0742 20.0037 5.01281 19.9283C4.95142 19.8529 4.87623 19.7907 4.79154 19.7453C3.47635 19.0579 4.08667 21.9141 2.77148 22.0028C2.95246 21.671 3.08155 21.3117 3.154 20.9384C2.87463 21.0138 2.20844 21.4529 1.90758 20.8896C2.21503 20.7164 2.47679 20.4682 2.67005 20.1667C2.86332 19.8653 2.98224 19.5196 3.01647 19.1599C3.07834 18.6322 3.20098 18.1141 3.38179 17.6164C3.66026 17.1109 3.98711 16.6355 4.35744 16.1972C4.2242 16.1972 2.74999 16.5387 2.41475 16.379C4.97205 14.7602 4.39612 12.7023 8.2901 10.8661C7.26718 10.0811 6.22277 9.45572 6.97492 7.96107C8.04082 9.29162 10.0695 8.8481 11.1655 8.21387C10.0824 7.99211 8.68982 7.00307 8.35887 5.91202C8.76718 5.84549 9.29584 6.30231 9.60099 6.5152C9.74712 6.1116 9.8073 5.62817 10.2801 5.53946C9.64827 6.93654 10.899 7.66835 12.0895 7.67278C12.2743 7.67278 13.048 7.59295 13.048 7.59295C12.9233 7.33127 12.4248 6.61721 12.7858 6.32893C13.0781 6.61278 13.4262 6.83897 13.7443 7.08734C16.0652 8.94124 12.6397 10.6577 11.2385 11.4382C9.04225 12.6623 9.63108 14.1215 10.5466 14.4941C10.5466 14.6582 10.4434 14.7291 10.293 14.7824C9.65257 15.0041 9.04655 14.5296 8.53509 14.228C8.56518 15.1416 8.505 16.002 9.48495 16.5254L8.81016 16.7782C9.39039 17.2217 9.56661 17.4745 10.2672 17.5676C9.9214 17.6973 9.55628 17.7633 9.18839 17.7628C9.25689 18.0559 9.37315 18.3348 9.53222 18.5877C8.10099 18.7651 7.52936 17.9225 7.08667 17.9535C6.14111 18.0245 6.20128 19.8606 8.52649 19.8606L8.28581 20.2687C8.55235 20.4246 8.84327 20.5311 9.14541 20.5836C8.99068 20.7122 8.84455 20.8852 8.71561 21.0271L9.08523 21.3553C8.13538 21.5327 7.8689 20.4682 7.25429 20.9916C6.31733 21.7589 8.38466 23.3777 10.366 23.1382C10.108 23.3986 9.82908 23.636 9.53222 23.8478C11.1483 25.4223 10.3488 26.9081 11.015 27.9947C10.392 27.9557 9.79731 27.7121 9.31791 27.2996C8.8385 26.8871 8.49945 26.3272 8.35028 25.7017" fill="#222220"/>
<path fill-rule="evenodd" clip-rule="evenodd" d="M5.80212 19.9583C6.13737 20.322 6.54568 20.3574 7.31502 20.3087C6.45542 20.2022 5.99123 19.9893 5.69467 19.4216C5.65022 19.1026 5.62296 18.7813 5.61301 18.4592C5.63682 17.3275 5.94008 16.2207 6.4941 15.2437C6.51494 15.768 6.71283 16.2683 7.05349 16.6579C7.39416 17.0475 7.85614 17.3019 8.35943 17.377C7.19897 16.8537 6.51989 15.6739 6.88952 14.5341C7.13021 14.1349 7.40528 13.7269 7.70613 13.3055C7.86086 13.1059 8.00699 12.9108 8.13593 12.729C7.98121 13.31 8.66029 13.9087 9.11588 14.0107C8.87089 13.7623 8.33794 12.9507 9.54568 11.598C9.19024 11.7732 8.85322 11.9858 8.53995 12.2322C10.7663 9.74852 12.5973 9.68199 13.4397 8.43127C12.2577 9.27396 9.03421 9.75739 7.58149 9.31387C8.38092 9.86383 10.3107 9.81505 10.7792 9.71304C9.20614 11.2875 5.77634 12.9197 5.19181 14.3655C5.73465 13.6931 6.47071 13.2162 7.29353 13.0039C6.73198 13.7997 6.25096 14.6527 5.858 15.5497C4.94682 17.5943 3.709 17.6209 3.64453 19.3107C4.07433 18.0024 4.90384 17.6697 5.49267 16.8137C5.38213 17.4262 5.33745 18.0495 5.35943 18.6721C5.37436 19.3702 5.51123 20.0598 5.76344 20.7078C5.70327 21.5416 5.76344 22.9653 6.70041 23.9056C6.18781 23.1227 5.93865 22.1877 5.99124 21.2445C6.7176 22.6903 8.78493 24.6862 9.78637 26.0256C8.78493 24.3003 6.34797 22.2867 5.81072 19.9583" fill="#222220"/>
<path fill-rule="evenodd" clip-rule="evenodd" d="M28.6985 13.0216C29.5195 13.2353 30.2538 13.712 30.7959 14.3832C30.2028 12.9329 26.7687 11.3052 25.2085 9.7307C25.6813 9.83271 27.6068 9.88593 28.4062 9.33153C26.9578 9.73957 23.7343 9.27388 22.5137 8.41345C23.3733 9.66417 25.187 9.744 27.4134 12.2144C27.0991 11.9671 26.7606 11.7546 26.4034 11.5802C27.6283 12.9329 27.0996 13.7445 26.8332 13.9929C27.2887 13.8909 27.9721 13.2921 27.8174 12.7111C27.9635 12.893 28.114 13.0837 28.2472 13.2877C28.5524 13.7046 28.8231 14.1171 29.0638 14.5162C29.4334 15.6561 28.7501 16.8358 27.5939 17.3592C28.0967 17.2839 28.5582 17.0294 28.8981 16.6397C29.2381 16.25 29.4351 15.7498 29.4549 15.2259C30.0105 16.2025 30.3152 17.3092 30.3403 18.4414C30.3293 18.7636 30.3006 19.0849 30.2544 19.4038C29.9578 19.9848 29.4807 20.1977 28.634 20.2908C29.4077 20.3396 29.8117 20.2908 30.1469 19.9405C29.6226 22.2645 27.1684 24.2825 26.1713 26.0078C27.1727 24.6772 29.24 22.6725 29.9664 21.2267C30.0183 22.1698 29.7692 23.1046 29.2572 23.8878C30.1856 22.9475 30.2544 21.5238 30.1942 20.6856C30.4451 20.0387 30.5819 19.3508 30.5982 18.6543C30.6218 18.0316 30.5771 17.4082 30.465 16.7959C31.0495 17.6563 31.8962 17.9845 32.3131 19.2929C32.2314 17.6076 31.0237 17.5809 30.0953 15.5319C29.703 14.6346 29.222 13.7815 28.6598 12.9861" fill="#222220"/>
<path fill-rule="evenodd" clip-rule="evenodd" d="M32.6683 16.8537C33.3861 16.969 33.9577 16.969 34.2199 16.2283C31.5767 14.9288 31.6024 12.2056 28.5638 10.7775C30.2314 9.50015 29.7844 8.30266 28.9936 7.09186C28.1726 8.59094 26.7586 8.79496 25.8904 8.30709C27.111 7.86357 27.5752 6.28909 28.3145 5.8367C27.8804 5.32222 27.2744 5.32222 26.591 5.76574C26.2171 4.73235 24.9921 5.07385 24.8073 5.07385C24.985 5.2227 25.1282 5.41068 25.2263 5.62402C25.3245 5.83736 25.3752 6.07066 25.3747 6.30683C25.2457 7.34466 23.6168 7.19386 23.6168 7.19386C23.9477 6.49311 23.8016 6.0762 23.0666 5.71695C22.8431 6.27578 21.0896 7.02533 20.9778 8.12525C20.8016 9.8461 22.7744 10.8884 24.5065 11.8552C26.4148 12.9197 25.7142 14.0728 25.0222 14.1127C24.6397 15.3368 26.1053 15.5542 26.9434 15.0574C26.9434 15.2215 26.8317 16.2017 25.5552 16.2815C25.5962 16.4399 25.679 16.5834 25.7944 16.6961C25.9097 16.8089 26.053 16.8864 26.2085 16.9202C25.7747 17.0986 25.3076 17.1744 24.8417 17.142C24.889 17.6742 25.4477 18.0999 26.1311 18.1709C25.9833 18.4141 25.7537 18.5926 25.4864 18.6721C26.2428 19.4482 28.2758 18.9382 28.6884 18.4902C28.8775 18.2862 29.1182 18.5745 28.8818 18.885C28.6454 19.1954 27.6268 19.5591 26.7973 19.2974C26.752 19.4375 26.7492 19.5885 26.7891 19.7303C26.829 19.8722 26.9098 19.9981 27.0208 20.0913C26.6753 20.12 26.3338 20.1869 26.0022 20.2909C26.0795 20.6502 26.4749 20.8586 26.6125 21.0005C26.4437 21.1766 26.3197 21.3929 26.2514 21.6303C26.6211 21.8166 27.6354 22.1049 28.1769 21.4662C28.3961 21.2134 28.6368 21.3731 28.4133 21.6969C27.6139 22.8323 25.7056 22.85 25.0308 22.4952C25.0308 23.3822 25.3832 23.5641 25.8345 23.9322C24.4549 25.5732 25.3661 27.0368 24.3904 28.4649C26.23 28.4649 27.399 27.4315 27.6999 26.4602C27.7124 26.6506 27.7902 26.8302 27.9194 26.9667C28.0485 27.1033 28.2206 27.1879 28.4047 27.2053C28.3848 26.8231 28.4713 26.443 28.654 26.1099C29.0279 26.4203 29.707 26.4913 30.5924 26.5268C29.5867 24.7527 32.4363 22.9565 31.3059 20.5526C31.1383 20.1933 31.6282 19.9627 31.6755 20.3308C31.942 22.3932 33.111 22.8589 34.1039 22.2158C33.8073 21.8787 33.6741 21.8876 33.4936 21.5816C34.1598 21.7634 34.4993 21.2667 34.6712 20.6413C32.8661 19.9849 33.8374 18.3838 32.6941 16.8537H32.6683ZM32.8446 20.9473C32.9154 21.3212 33.0446 21.6807 33.2271 22.0118C31.9119 21.9231 32.5222 19.0668 31.207 19.7543C31.0367 19.8444 30.9078 20.0003 30.8483 20.1879C30.7887 20.3756 30.8033 20.58 30.889 20.7566C31.7486 22.5928 29.7887 24.2116 29.9004 25.8216C29.4148 25.8216 28.9119 25.8216 28.611 25.1341C28.3946 25.539 28.2078 25.96 28.0523 26.3937L27.6612 25.7063C27.5114 26.3314 27.1722 26.8909 26.6929 27.3033C26.2136 27.7157 25.6193 27.9595 24.9964 27.9992C25.6583 26.9126 24.8632 25.4313 26.4792 23.8524C26.1822 23.6408 25.9033 23.4034 25.6454 23.1427C27.6311 23.3822 29.6984 21.7634 28.7572 20.9961C28.1426 20.4949 27.8718 21.5372 26.9262 21.3598L27.2959 21.0316C27.1669 20.8985 27.0165 20.7256 26.8661 20.5881C27.1682 20.5358 27.4592 20.4293 27.7257 20.2732L27.485 19.8651C29.8059 19.8651 29.8661 18.029 28.9248 17.958C28.495 17.9225 27.9105 18.7652 26.4792 18.5922C26.6365 18.3384 26.7527 18.0597 26.8231 17.7673C26.4552 17.7677 26.0901 17.7016 25.7443 17.5722C26.4449 17.479 26.6039 17.2395 27.2013 16.7827L26.5265 16.5255C27.5065 16.0199 27.442 15.1417 27.4721 14.228C26.9606 14.5341 26.3546 15.0042 25.7185 14.7824C25.5638 14.7292 25.4649 14.6583 25.4649 14.4942C26.3847 14.1216 26.9692 12.6624 24.7729 11.4383C23.3718 10.6577 19.9463 8.94132 22.2672 7.08742C22.5853 6.83462 22.9291 6.60842 23.2214 6.32901C23.5867 6.61729 23.0881 7.33136 22.9635 7.59303C22.9635 7.59303 23.7371 7.67286 23.9176 7.67286C25.1125 7.67286 26.3675 6.93662 25.7314 5.53955C26.2085 5.64156 26.2643 6.11168 26.4062 6.51528C26.7113 6.3024 27.24 5.84557 27.6483 5.9121C27.3173 7.00759 25.9291 7.9922 24.8374 8.21395C25.9334 8.83044 27.962 9.28726 29.0279 7.96115C29.7758 9.4558 28.7314 10.0812 27.7085 10.8662C31.6067 12.6979 31.0308 14.7558 33.5838 16.3791C33.2529 16.5388 31.7744 16.2194 31.6411 16.1973C32.0142 16.6343 32.3426 17.1099 32.6211 17.6165C32.806 18.1137 32.9329 18.6318 32.9993 19.16C33.0357 19.5191 33.1554 19.8638 33.3485 20.1649C33.5415 20.466 33.8021 20.7147 34.1082 20.8897C33.8073 21.4529 33.1411 21.0139 32.8618 20.9385" fill="#222220"/>
<path fill-rule="evenodd" clip-rule="evenodd" d="M14.2645 25.4445L14.819 24.9566L14.733 24.7836C14.6728 24.6595 14.7029 24.6506 14.7674 24.6018L15.0596 24.3756C15.0913 24.3513 15.1284 24.3356 15.1675 24.3302C15.2066 24.3248 15.2464 24.3297 15.2831 24.3446L16.1427 24.5575H15.2359C15.1561 24.5542 15.0776 24.5787 15.013 24.627C14.9483 24.6752 14.9012 24.7444 14.8791 24.8236L14.8147 24.9566L14.574 25.4622C14.5181 25.5693 14.4967 25.6919 14.513 25.8123C14.5292 25.9327 14.5822 26.0447 14.6642 26.1319L14.8319 26.3404L14.4966 27.0545H14.7846L15.021 26.5577C15.2183 26.3698 15.3662 26.1333 15.4508 25.8703C15.3519 25.786 15.2788 25.7239 15.3347 25.6086L15.4422 25.3735C15.4765 25.2937 15.4894 25.2626 15.5926 25.2848L16.5167 25.4888C16.5856 25.5255 16.6651 25.5349 16.7403 25.5153C16.8155 25.4957 16.8812 25.4485 16.925 25.3824C17.0496 25.1828 17.0668 25.205 17.3548 25.236L17.8276 25.2893C18.3595 25.3599 18.8993 25.251 19.3662 24.9788C19.4522 25.1872 19.6284 25.3425 19.7101 25.5021C19.7402 25.5598 19.7101 25.6441 19.6499 25.7505L19.1384 27.0545H19.9551L20.4149 25.8614C20.4492 25.7684 20.5019 25.6838 20.5697 25.613L20.3075 27.0545H21.0983L21.3089 25.6263C21.3562 25.3114 21.3089 25.205 21.18 25.0764C20.849 24.7881 20.8576 24.1893 20.7502 23.8168C20.8101 23.7814 20.8795 23.7674 20.9479 23.7769C21.1198 23.7769 21.2488 24.247 21.4551 24.5397C21.8591 25.1296 22.4135 25.7771 23.0496 24.8635C22.9891 24.7614 22.9201 24.6649 22.8433 24.5752L22.6671 24.3623C22.5639 24.2426 22.074 23.666 21.8677 23.4753C21.6786 23.281 21.4317 23.1579 21.1667 23.1257C20.9017 23.0936 20.634 23.1542 20.4064 23.2979C19.7617 22.9475 19.0826 23.2979 18.9235 23.2979L17.8147 23.2269C17.778 23.2255 17.7422 23.2146 17.7107 23.1952C17.6791 23.1759 17.6528 23.1486 17.6341 23.116L17.8404 23.0451C17.647 22.2157 17.1614 21.5238 16.3147 21.404C16.3147 21.404 16.2631 21.1424 16.1341 21.0936L15.8806 21.3996C15.8066 21.4103 15.7343 21.4312 15.6657 21.4617L14.5826 21.0448L15.4164 21.883C15.4164 21.883 14.9866 22.4995 14.8533 22.6193C14.8332 22.6399 14.8172 22.6644 14.8063 22.6915C14.7954 22.7185 14.7898 22.7475 14.7898 22.7767C14.7898 22.806 14.7954 22.835 14.8063 22.862C14.8172 22.889 14.8332 22.9136 14.8533 22.9342L15.0124 23.1471C15.094 23.2579 15.1843 23.2535 15.3132 23.1826L15.4894 23.085C15.5668 23.0184 15.829 23.1515 15.9192 23.0451C15.873 23.2637 15.8486 23.4866 15.8462 23.7103L15.1155 23.6216C15.0589 23.607 14.9996 23.6067 14.9428 23.6205C14.8859 23.6344 14.8332 23.6622 14.7889 23.7015L14.1657 24.1938C14.0642 24.2754 13.9942 24.3916 13.9682 24.5216C13.9422 24.6517 13.9619 24.787 14.0238 24.9034L14.2645 25.4445ZM20.2817 25.5864L19.7874 26.8416H19.4823L19.9766 25.6263C20.0281 25.4711 19.9293 25.3957 19.8089 25.2227C19.9804 25.327 20.1601 25.416 20.3462 25.4888C20.3241 25.52 20.304 25.5526 20.286 25.5864H20.2817ZM15.5238 22.8632L15.382 22.9386C15.2831 22.9963 15.2359 23.0229 15.1499 22.912L15.0897 22.8322C15.071 22.8005 15.063 22.7633 15.0669 22.7264C15.0708 22.6895 15.0864 22.655 15.1112 22.6282L15.7172 21.9008L15.1585 21.4262L15.8677 21.6968L16.1298 21.3597C16.2072 21.4262 16.1814 21.6214 16.1814 21.6214C16.5149 21.6912 16.8138 21.8804 17.0253 22.1555C17.2368 22.4306 17.3474 22.7739 17.3376 23.1249C17.4378 23.2789 17.5918 23.387 17.7674 23.4265L19.0009 23.5019C19.2072 23.5019 19.7144 23.0983 20.372 23.5019C20.5305 23.395 20.7092 23.3239 20.8963 23.2934C21.1627 23.3008 21.423 23.3769 21.6535 23.5148C21.884 23.6527 22.0773 23.848 22.2158 24.0829C22.4479 24.3845 22.7659 24.8502 22.7659 24.8502C22.6284 25.0187 22.4952 25.0719 22.3834 25.032C22.3068 24.9854 22.2418 24.921 22.1933 24.8441C22.1448 24.7672 22.1143 24.6797 22.1041 24.5885C22.0132 24.3602 21.8648 24.1611 21.6743 24.0119C21.7666 24.224 21.8316 24.4477 21.8677 24.6772C21.3863 24.1849 21.296 23.5862 20.9565 23.5019C20.8635 23.4873 20.7684 23.5004 20.6823 23.5397C20.5963 23.579 20.5229 23.6428 20.4708 23.7236C20.6427 24.1317 20.6298 24.6107 20.8061 24.9167C20.9393 25.1518 20.9651 25.1739 21.0253 25.2272C21.1671 25.3336 21.0854 25.5199 21.0639 25.6707L20.8791 26.8504H20.574L20.776 25.6929C20.8362 25.3425 19.882 25.3425 19.3877 24.6683C18.9579 25.1739 17.7975 25.0453 17.2903 24.9699C17.1963 24.9348 17.0933 24.9347 16.9992 24.9695C16.905 25.0043 16.8256 25.0719 16.7745 25.1606C16.7101 25.276 16.5983 25.2405 16.5296 25.2272L15.6055 25.0231C15.5764 25.0098 15.5448 25.0031 15.5129 25.0034C15.4811 25.0037 15.4496 25.011 15.4207 25.0248C15.3918 25.0387 15.3661 25.0588 15.3454 25.0837C15.3246 25.1087 15.3092 25.1379 15.3003 25.1695L15.1155 25.5642C15.093 25.6012 15.084 25.6452 15.0903 25.6884C15.0966 25.7315 15.1178 25.7709 15.1499 25.7993L15.2359 25.8969C15.1917 26.0253 15.1162 26.1399 15.0167 26.2295L14.8147 25.9944C14.7698 25.9308 14.7435 25.8552 14.7389 25.7766C14.7344 25.698 14.7517 25.6197 14.7889 25.5509L15.0897 24.9078C15.1084 24.8627 15.1396 24.8244 15.1794 24.7975C15.2191 24.7707 15.2657 24.7566 15.3132 24.757H16.4565L16.1084 24.1672C15.8462 23.7236 16.2803 22.9386 16.2158 22.5661C16.1814 23.0628 15.5969 22.8366 15.5066 22.9031L15.5238 22.8632ZM14.2817 24.349L14.8233 23.9055C14.8576 23.8674 14.8997 23.8377 14.9465 23.8186C14.9934 23.7994 15.0438 23.7912 15.094 23.7946L15.8591 23.8966C15.8938 24.029 15.949 24.1548 16.0224 24.2692L15.2101 24.0918C15.1648 24.0804 15.1174 24.081 15.0724 24.0934C15.0274 24.1058 14.986 24.1296 14.9522 24.1627L14.5654 24.4643C14.5301 24.4954 14.507 24.5387 14.5007 24.5862C14.4944 24.6336 14.5051 24.6818 14.531 24.7216L14.5912 24.859L14.3204 25.0675L14.2172 24.8679C14.1141 24.655 14.1055 24.4599 14.2774 24.3224" fill="#222220"/>
<path fill-rule="evenodd" clip-rule="evenodd" d="M16.638 9.1986C16.8994 9.36929 17.174 9.51763 17.4589 9.64212V9.28287L16.3027 8.83936C16.3027 8.83936 16.3027 8.98572 16.638 9.22078" fill="#222220"/>
<path fill-rule="evenodd" clip-rule="evenodd" d="M17.4593 8.76395V8.4047L16.1699 7.92126C16.3198 8.07362 16.4839 8.2103 16.6599 8.3293C16.9215 8.4998 17.196 8.64813 17.4808 8.77282" fill="#222220"/>
<path fill-rule="evenodd" clip-rule="evenodd" d="M17.459 7.94778V7.5841L16.0234 7.03857C16.0234 7.03857 16.3028 7.27364 16.638 7.5087C16.8993 7.67974 17.1739 7.82809 17.459 7.95222" fill="#222220"/>
<path fill-rule="evenodd" clip-rule="evenodd" d="M21.4902 12.862H22.9602C22.9057 12.716 22.8054 12.593 22.6753 12.5126C22.5452 12.4323 22.3928 12.3991 22.2424 12.4185C22.0896 12.4137 21.9385 12.4526 21.8057 12.5309C21.673 12.6091 21.5638 12.7237 21.4902 12.862Z" fill="#222220"/>
<path fill-rule="evenodd" clip-rule="evenodd" d="M19.9551 7.03866L18.5195 7.58418V7.94343C18.8046 7.8193 19.0792 7.67095 19.3404 7.49991C19.6757 7.26485 19.9508 7.02979 19.9508 7.02979" fill="#222220"/>
<path fill-rule="evenodd" clip-rule="evenodd" d="M19.6757 8.8171L18.5195 9.26061V9.61986C18.8044 9.49528 19.0789 9.34695 19.3404 9.17635C19.6757 8.94128 19.6757 8.79492 19.6757 8.79492" fill="#222220"/>
<path fill-rule="evenodd" clip-rule="evenodd" d="M19.8363 7.92122L18.5469 8.40466V8.76391C18.8318 8.63956 19.1064 8.49122 19.3678 8.32039C19.5435 8.20104 19.7076 8.06439 19.8578 7.91235" fill="#222220"/>
<path fill-rule="evenodd" clip-rule="evenodd" d="M13.7373 12.4185C13.5868 12.3991 13.4344 12.4323 13.3044 12.5126C13.1743 12.593 13.074 12.716 13.0195 12.862H14.4894C14.4159 12.7237 14.3067 12.6091 14.1739 12.5309C14.0412 12.4526 13.8901 12.4137 13.7373 12.4185Z" fill="#222220"/>
<path fill-rule="evenodd" clip-rule="evenodd" d="M20.9052 6.0718C20.9052 5.22025 19.517 4.4574 17.9869 4.4574C16.4568 4.4574 15.0686 5.22025 15.0686 6.0718L15.0987 6.28025L15.709 9.89935L12.8379 11.6379C12.6345 11.7749 12.4615 11.9549 12.3304 12.1659C12.1993 12.3769 12.113 12.6141 12.0772 12.862H12.6058C12.6433 12.5599 12.7898 12.2835 13.016 12.0878C13.2422 11.8922 13.5316 11.7917 13.8264 11.8065C14.4926 11.842 14.8881 12.25 15.2835 12.862L15.3823 13.0217L15.5285 13.2568H11.2734C11.6302 13.892 11.8391 14.6041 11.8838 15.3369V24.4556C11.8838 26.8018 13.633 27.9239 15.5242 27.9239C16.9855 27.9239 17.1832 27.8574 17.9912 28.6867C18.7949 27.8529 18.9926 27.9239 20.4583 27.9239C22.3494 27.9239 24.0987 26.8062 24.0987 24.4556V15.328C24.1431 14.5952 24.352 13.8831 24.709 13.2479H20.454L20.6001 13.0128L20.7032 12.8532C21.0944 12.2544 21.4898 11.8331 22.1603 11.7976C22.455 11.7854 22.7433 11.8881 22.9679 12.0854C23.1925 12.2826 23.3369 12.5599 23.3723 12.862H23.8966C23.8629 12.6156 23.7792 12.3792 23.6511 12.1683C23.523 11.9575 23.3533 11.7767 23.1531 11.6379L20.2605 9.89935L20.8709 6.28025L20.9052 6.0718ZM15.6617 6.48871L17.8107 7.24712V10.7332L16.2204 9.8683L15.6617 6.48871ZM16.1946 13.8821C16.513 14.3072 16.9721 14.5962 17.484 14.6938C17.5375 14.9407 17.669 15.1623 17.858 15.3236C17.8242 15.4681 17.8186 15.618 17.8415 15.7648C17.8644 15.9115 17.9153 16.0521 17.9913 16.1783C18.0673 16.3046 18.1668 16.414 18.2841 16.5003C18.4014 16.5865 18.5341 16.6479 18.6746 16.6807C18.7044 16.835 18.7734 16.9784 18.8747 17.0961C18.9759 17.2138 19.1056 17.3015 19.2505 17.3504L18.8207 17.8871C18.7508 17.9752 18.6608 18.044 18.5588 18.0874C18.4568 18.1307 18.3459 18.1473 18.2362 18.1355L16.2204 17.9004C16.3064 17.6698 16.0743 17.4037 15.4382 17.519L16.229 15.2304L15.7305 14.1926L14.815 14.9998L14.7462 17.3992L14.3551 17.1996C13.8436 16.9734 13.6932 17.927 14.1789 17.9314H14.3723C14.362 17.9761 14.3651 18.0229 14.3813 18.0657C14.3974 18.1085 14.4257 18.1452 14.4625 18.1709C14.4394 18.1856 14.4204 18.2062 14.4071 18.2306C14.3939 18.2551 14.3869 18.2826 14.3869 18.3106C14.3869 18.3387 14.3939 18.3662 14.4071 18.3907C14.4204 18.4151 14.4394 18.4357 14.4625 18.4504C14.4361 18.4651 14.4134 18.4861 14.3964 18.5117C14.3794 18.5373 14.3685 18.5668 14.3648 18.5975C14.361 18.6283 14.3644 18.6596 14.3746 18.6888C14.3849 18.7179 14.4018 18.7442 14.4239 18.7653C14.3894 18.8227 14.3681 18.8875 14.3617 18.9547C14.3552 19.0219 14.3637 19.0898 14.3865 19.1531C14.4093 19.2164 14.4458 19.2736 14.4932 19.3201C14.5407 19.3666 14.5978 19.4014 14.6603 19.4217C14.9482 19.5015 15.1287 19.1777 15.1889 18.9781L18.3264 19.9805C18.5205 20.0523 18.7305 20.0646 18.9311 20.0158C19.1317 19.967 19.3143 19.8592 19.4568 19.7055L20.2734 18.9648C20.2104 19.166 20.219 19.3838 20.2979 19.579C20.3767 19.7741 20.5204 19.9338 20.7032 20.0293C20.6774 20.2381 20.666 20.4486 20.6689 20.6591H12.5027V15.3369C12.4849 14.8386 12.3816 14.3476 12.1975 13.8866L16.1946 13.8821ZM19.5686 15.9001C19.4837 16.0697 19.4433 16.2593 19.4516 16.45C19.4599 16.6406 19.5165 16.8257 19.6158 16.9868L19.4826 17.1242C18.8938 17.0488 18.6617 16.1441 18.6617 16.1441C18.6552 16.2252 18.6552 16.3068 18.6617 16.388C18.488 16.3243 18.3402 16.2022 18.242 16.0413C18.1437 15.8804 18.1008 15.6901 18.1201 15.501C18.2539 15.5773 18.3992 15.6298 18.5499 15.6562L18.5886 15.3901C18.4168 15.3674 18.2551 15.2938 18.1231 15.178C17.991 15.0623 17.8945 14.9094 17.8451 14.7381H17.7892H18.0084C18.2368 14.7368 18.464 14.7025 18.6832 14.6361C18.7773 14.7603 18.8946 14.8635 19.0283 14.9397C19.162 15.0159 19.3092 15.0635 19.4611 15.0796C19.4156 15.3479 19.4532 15.6241 19.5686 15.8691V15.9001ZM20.4282 18.2641C20.3673 18.3485 20.3208 18.443 20.2906 18.5435L19.964 18.854C19.9772 18.6035 19.9345 18.3533 19.8391 18.1226C19.7437 17.8918 19.5982 17.6869 19.4138 17.5234L19.762 17.1686L19.8307 17.2396C19.8045 17.3465 19.7993 17.4577 19.8152 17.5667C19.8312 17.6758 19.8681 17.7805 19.9237 17.8746C19.9793 17.9688 20.0526 18.0505 20.1392 18.1151C20.2258 18.1797 20.3241 18.2258 20.4282 18.2508V18.2641ZM18.8551 18.1399L19.1259 17.8649C19.3124 18.0252 19.4578 18.2305 19.5493 18.4625C19.6407 18.6946 19.6754 18.9463 19.6502 19.1955L19.3537 19.4749C19.2962 19.5309 19.2327 19.58 19.1646 19.6212C19.2311 19.3667 19.2377 19.0995 19.1839 18.8419C19.13 18.5842 19.0173 18.3435 18.8551 18.1399ZM18.2749 18.3705C18.3758 18.3834 18.4782 18.3681 18.5714 18.3262C18.7033 18.535 18.7833 18.7742 18.8043 19.0225C18.8253 19.2708 18.7866 19.5206 18.6918 19.7499C18.5549 19.7497 18.4188 19.7288 18.2878 19.6878L18.1846 19.6567C18.3638 19.2513 18.3928 18.7921 18.2663 18.3661L18.2749 18.3705ZM17.5829 18.2774L17.9654 18.3262C18.0349 18.7393 17.9716 19.1645 17.7849 19.537L17.3551 19.4039C17.5474 19.0636 17.6316 18.6696 17.5958 18.2774H17.5829ZM16.7964 18.1842L17.2562 18.2419C17.291 18.6167 17.2161 18.9936 17.0413 19.3241L16.5729 19.1822C16.754 18.8849 16.8327 18.5334 16.7964 18.1842ZM14.9267 18.0556C14.8923 18.073 14.854 18.0803 14.8159 18.0768C14.7778 18.0734 14.7413 18.0592 14.7103 18.036C14.6794 18.0127 14.6552 17.9812 14.6403 17.9448C14.6254 17.9084 14.6204 17.8685 14.6259 17.8294C14.7391 17.7668 14.8663 17.7363 14.9947 17.741C15.123 17.7456 15.2479 17.7853 15.3565 17.856C15.4683 17.9314 15.5628 18.1399 15.7176 18.2685C15.6885 18.4751 15.6411 18.6785 15.5757 18.8761C15.494 18.8717 15.4153 18.8434 15.3487 18.7944C15.282 18.7454 15.2303 18.6779 15.1997 18.5996C15.169 18.5214 15.1606 18.4357 15.1754 18.3527C15.1902 18.2697 15.2277 18.1928 15.2835 18.131C15.2419 18.0762 15.183 18.0381 15.117 18.0235C15.051 18.009 14.9821 18.0187 14.9224 18.0512L14.9267 18.0556ZM14.6216 18.9382C14.7155 18.9745 14.8139 18.9969 14.9138 19.0048C14.9118 19.0288 14.905 19.0522 14.8937 19.0733C14.8824 19.0945 14.867 19.113 14.8483 19.1276C14.8297 19.1422 14.8083 19.1527 14.7856 19.1582C14.7628 19.1638 14.7391 19.1644 14.7161 19.16C14.6948 19.1533 14.6751 19.1419 14.6584 19.1267C14.6418 19.1114 14.6285 19.0926 14.6195 19.0715C14.6105 19.0505 14.606 19.0276 14.6064 19.0046C14.6068 18.9816 14.6119 18.959 14.6216 18.9382ZM14.1918 17.6609C14.1671 17.6481 14.1473 17.627 14.136 17.601C14.1246 17.575 14.1222 17.5457 14.1293 17.5181C14.1363 17.4905 14.1524 17.4663 14.1747 17.4495C14.1971 17.4327 14.2243 17.4243 14.2519 17.4258C14.3809 17.4258 14.5571 17.5811 14.7247 17.6565C14.5483 17.6868 14.3682 17.6868 14.1918 17.6565V17.6609ZM14.6216 18.5834C14.7161 18.6766 14.9955 18.6411 14.9955 18.6411V18.6987C14.8752 18.8673 14.5356 18.7919 14.613 18.5834H14.6216ZM14.9912 18.3927C14.7935 18.4725 14.5872 18.3617 14.6517 18.2286C14.7462 18.3173 15.0041 18.273 15.0041 18.273L14.9912 18.3927ZM15.2835 15.9977L14.9009 17.4347L15.0299 15.1151L15.623 14.5918L15.9239 15.2748L15.1889 17.519L15.3909 16.0021C15.3909 15.8957 15.3264 15.8868 15.3093 16.0021L15.2835 15.9977ZM15.335 17.7407C15.5174 17.7287 15.7005 17.7376 15.8809 17.7673C15.9711 17.8073 15.911 17.9581 15.7949 17.9403C15.6354 17.8904 15.4812 17.8235 15.335 17.7407ZM16.0012 18.0911L16.4654 18.1488C16.4984 18.4802 16.4292 18.8139 16.2677 19.1023L15.8379 18.9693C15.9432 18.6851 16.0055 18.3859 16.0227 18.0822L16.0012 18.0911ZM23.5055 24.46C23.5261 24.951 23.4131 25.4381 23.1791 25.8661C22.9451 26.2941 22.5996 26.6459 22.1817 26.8816L22.4783 26.2607H22.1903L21.8121 27.059C21.3844 27.2222 20.9314 27.3034 20.4754 27.2985C18.9668 27.2985 18.5671 27.3606 18.0084 27.9372C17.4497 27.365 17.0499 27.2985 15.5413 27.2985C15.0822 27.3027 14.6263 27.2201 14.1961 27.0546L14.5786 26.2563H14.2992L13.964 26.957C13.8823 26.9171 13.8093 26.8772 13.7319 26.8328L14.007 26.2607H13.7233L13.5213 26.7042C13.1899 26.447 12.9235 26.1112 12.7447 25.7251C12.5659 25.3391 12.4799 24.9142 12.4941 24.4866V20.9651H23.484L23.5055 24.46ZM23.8107 13.8866C23.6243 14.3468 23.5209 14.8383 23.5055 15.3369V20.6591H22.9038C22.669 20.3001 22.4986 19.9005 22.4009 19.4793C22.3498 19.6781 22.3394 19.8857 22.3705 20.0889C22.4016 20.292 22.4734 20.4862 22.5815 20.6591H21.8078C21.636 20.2741 21.5159 19.8668 21.4511 19.4483C21.219 19.7188 21.3651 20.4551 21.5113 20.6591H20.9998C20.9864 20.3936 21.011 20.1276 21.0729 19.8696C20.8021 19.8164 20.5184 19.6745 20.5184 19.364C20.5658 19.4165 20.6255 19.4556 20.6917 19.4773C20.758 19.4991 20.8286 19.5028 20.8966 19.4882L21.1158 19.3108C20.3938 19.333 20.3594 18.5169 20.931 18.131C20.3551 18.131 19.9296 17.7984 20.1359 17.1686C20.0395 17.1048 19.9565 17.0219 19.8916 16.9245C19.8267 16.8272 19.7813 16.7175 19.7581 16.6018C19.7349 16.4861 19.7343 16.3668 19.7564 16.2509C19.7784 16.135 19.8227 16.0248 19.8866 15.9267C19.7798 15.7774 19.7128 15.6017 19.6924 15.4172C19.6721 15.2327 19.699 15.046 19.7706 14.8756C19.4748 14.8788 19.1895 14.7626 18.9754 14.5518H18.9282C19.2699 14.4097 19.5673 14.1734 19.7878 13.8688L23.8107 13.8866ZM21.623 11.323C21.0256 11.4295 20.5141 12.1835 20.0972 12.862L20.0499 12.9419H19.6201V13.0217C19.5729 13.5451 19.0915 14.2547 18.0299 14.2547C17.6288 14.2677 17.2357 14.1377 16.9167 13.8866C16.7173 13.7241 16.568 13.5053 16.4869 13.2568C16.4628 13.1805 16.4469 13.1016 16.4396 13.0217V12.9419H16.0098L15.9024 12.862C15.4726 12.1835 14.9697 11.4339 14.3766 11.323L15.9969 10.3517L17.9955 11.465L19.9855 10.3473L21.623 11.323ZM19.7663 9.8683L18.176 10.7332V7.24268L20.325 6.48427L19.7663 9.8683ZM17.9955 6.86126L15.6316 5.89883C15.8336 5.41096 16.7577 5.01179 17.9912 5.01179C19.2247 5.01179 20.1402 5.4287 20.3465 5.89883L17.9955 6.86126Z" fill="#222220"/>
<path fill-rule="evenodd" clip-rule="evenodd" d="M23.2357 17.3193V17.0532C22.4406 17.0532 22.2601 16.0686 22.2601 16.0686C22.2178 16.2195 22.2112 16.3788 22.241 16.5329C22.2708 16.687 22.3361 16.8314 22.4313 16.954C22.5265 17.0766 22.6489 17.1738 22.7882 17.2374C22.9274 17.301 23.0795 17.3291 23.2314 17.3193" fill="#222220"/>
<path fill-rule="evenodd" clip-rule="evenodd" d="M22.2329 18.9559L22.1556 18.7031C21.4808 18.8805 21.1283 17.7761 21.1283 17.7761C21.0832 17.936 21.0798 18.1054 21.1186 18.2671C21.1573 18.4287 21.2368 18.577 21.3489 18.6967C21.461 18.8165 21.6019 18.9036 21.7571 18.9491C21.9124 18.9946 22.0765 18.9969 22.2329 18.9559Z" fill="#222220"/>
<path fill-rule="evenodd" clip-rule="evenodd" d="M22.7232 17.9314C21.9152 18.0644 21.5842 17.0931 21.5842 17.0931C21.5596 17.22 21.5605 17.3507 21.5868 17.4771C21.6132 17.6036 21.6644 17.7231 21.7373 17.8283C21.8103 17.9335 21.9034 18.0221 22.0108 18.0887C22.1183 18.1553 22.2379 18.1983 22.3622 18.2152C22.3327 18.3528 22.3423 18.4962 22.3899 18.6282C22.4374 18.7602 22.5209 18.8753 22.6302 18.9596C22.7396 19.0439 22.8702 19.0938 23.0064 19.1034C23.1426 19.113 23.2786 19.0818 23.398 19.0136L23.3206 18.7741C23.2132 18.8165 23.0952 18.8213 22.9848 18.7877C22.8745 18.7541 22.7779 18.684 22.71 18.5882C22.642 18.4924 22.6065 18.3762 22.6089 18.2575C22.6113 18.1388 22.6515 18.0242 22.7232 17.9314Z" fill="#222220"/>
<path fill-rule="evenodd" clip-rule="evenodd" d="M22.2209 15.1594V14.8933C21.155 14.6671 21.241 13.9087 21.241 13.9087C21.1997 14.0596 21.1939 14.2184 21.2241 14.3721C21.2543 14.5257 21.3197 14.6697 21.4147 14.7921C21.5097 14.9144 21.6316 15.0116 21.7704 15.0755C21.9091 15.1394 22.0607 15.1681 22.2123 15.1594" fill="#222220"/>
<path fill-rule="evenodd" clip-rule="evenodd" d="M15.4548 26.2562L15.0723 27.059H15.3602L15.7428 26.2562H15.4548Z" fill="#222220"/>
<path fill-rule="evenodd" clip-rule="evenodd" d="M16.0306 26.2562L15.6523 27.059H15.9403L16.3185 26.2562H16.0306Z" fill="#222220"/>
<path fill-rule="evenodd" clip-rule="evenodd" d="M18.3435 26.2562L17.9609 27.059H18.2489L18.6314 26.2562H18.3435Z" fill="#222220"/>
<path fill-rule="evenodd" clip-rule="evenodd" d="M18.9235 26.2562L18.541 27.059H18.829L19.2072 26.2562H18.9235Z" fill="#222220"/>
<path fill-rule="evenodd" clip-rule="evenodd" d="M17.7673 26.2562L17.3848 27.059H17.6727L18.0553 26.2562H17.7673Z" fill="#222220"/>
<path fill-rule="evenodd" clip-rule="evenodd" d="M21.1426 27.059H21.4305L21.8131 26.2562H21.5251L21.1426 27.059Z" fill="#222220"/>
<path fill-rule="evenodd" clip-rule="evenodd" d="M16.611 26.2562L16.2285 27.059H16.5165L16.899 26.2562H16.611Z" fill="#222220"/>
<path fill-rule="evenodd" clip-rule="evenodd" d="M17.1872 26.2562L16.8047 27.059H17.097L17.4752 26.2562H17.1872Z" fill="#222220"/>
<path fill-rule="evenodd" clip-rule="evenodd" d="M15.8813 21.9586C15.8579 21.955 15.834 21.9588 15.8128 21.9696C15.7916 21.9804 15.7741 21.9976 15.7626 22.0189C15.7512 22.0402 15.7463 22.0646 15.7486 22.0889C15.751 22.1132 15.7604 22.1361 15.7758 22.1547C15.7911 22.1732 15.8115 22.1865 15.8344 22.1928C15.8572 22.199 15.8814 22.1979 15.9036 22.1896C15.9258 22.1813 15.945 22.1662 15.9587 22.1463C15.9724 22.1265 15.9799 22.1027 15.9801 22.0783C15.9814 22.0492 15.9719 22.0206 15.9536 21.9984C15.9352 21.9762 15.9094 21.9619 15.8813 21.9586Z" fill="#222220"/>
<path fill-rule="evenodd" clip-rule="evenodd" d="M17.9966 3.91631C18.947 3.88833 19.8801 4.18279 20.6527 4.75456C20.7738 4.1092 21.0068 3.49169 21.3404 2.93171L20.3863 3.04258L19.8877 1.9471L18.9292 2.46158L17.9966 1.51245L17.0682 2.46601L16.1012 1.9471L15.6026 3.04258L14.6484 2.93171C14.9829 3.49125 15.2159 4.10893 15.3361 4.75456C16.1101 4.18216 17.0447 3.88768 17.9966 3.91631ZM15.7702 3.4728L16.2172 2.48375L17.0768 2.92727L17.9966 2.00032L18.9292 2.94945L19.7888 2.50593L20.2186 3.49941L20.7774 3.4107C20.6306 3.68375 20.5124 3.97219 20.4249 4.27113C19.6814 3.8427 18.8439 3.61778 17.9923 3.61778C17.1406 3.61778 16.3032 3.8427 15.5596 4.27113C15.4716 3.97241 15.3535 3.68402 15.2072 3.4107L15.7702 3.4728Z" fill="#222220"/>
<path fill-rule="evenodd" clip-rule="evenodd" d="M18.9667 1.95592C19.0334 1.9621 19.0997 1.94087 19.1512 1.89684C19.2027 1.85281 19.2353 1.78956 19.2418 1.72086C19.2086 1.53644 19.1446 1.35937 19.0527 1.19751C19.0527 1.19751 18.7475 1.53458 18.739 1.67651C18.7341 1.74453 18.7553 1.8118 18.7978 1.86399C18.8404 1.91618 18.901 1.94917 18.9667 1.95592Z" fill="#222220"/>
<path fill-rule="evenodd" clip-rule="evenodd" d="M20.5278 2.54129C20.557 2.55737 20.5891 2.56727 20.6222 2.57039C20.6552 2.57351 20.6885 2.5698 20.7201 2.55947C20.7517 2.54915 20.781 2.53241 20.8063 2.51025C20.8316 2.48809 20.8523 2.46095 20.8673 2.43041C20.9064 2.2469 20.9136 2.05771 20.8888 1.87158C20.8888 1.87158 20.4848 2.05786 20.4203 2.18648C20.39 2.24773 20.3843 2.31884 20.4044 2.38441C20.4245 2.44998 20.4688 2.50474 20.5278 2.53686" fill="#222220"/>
<path fill-rule="evenodd" clip-rule="evenodd" d="M17.0149 1.95592C17.0815 1.95026 17.1432 1.91774 17.1866 1.86543C17.2301 1.81312 17.2518 1.74523 17.247 1.67651C17.247 1.53458 16.9333 1.19751 16.9333 1.19751C16.8417 1.35953 16.7777 1.53654 16.7441 1.72086C16.7507 1.78873 16.7827 1.85128 16.8332 1.89518C16.8838 1.93909 16.949 1.96088 17.0149 1.95592Z" fill="#222220"/>
<path fill-rule="evenodd" clip-rule="evenodd" d="M15.4505 2.54137C15.5087 2.5085 15.5521 2.45341 15.5714 2.38791C15.5907 2.32241 15.5843 2.25171 15.5537 2.191C15.4892 2.06238 15.0852 1.8761 15.0852 1.8761C15.0616 2.06248 15.0703 2.25171 15.111 2.43493C15.126 2.46546 15.1467 2.49261 15.172 2.51477C15.1973 2.53693 15.2266 2.55366 15.2582 2.56399C15.2898 2.57432 15.3231 2.57803 15.3561 2.5749C15.3892 2.57178 15.4213 2.56189 15.4505 2.54581" fill="#222220"/>
<path fill-rule="evenodd" clip-rule="evenodd" d="M34.2028 11.4073C34.5288 11.263 34.7866 10.9922 34.9206 10.6533C34.061 10.5291 31.8217 9.55335 29.9693 10.3472C30.6612 9.66867 31.2845 9.57996 31.3446 8.60423C31.4196 8.67578 31.5094 8.72872 31.6071 8.75902C31.7049 8.78932 31.8081 8.79618 31.9089 8.77906C32.0096 8.76195 32.1052 8.72132 32.1885 8.66028C32.2717 8.59923 32.3403 8.51938 32.389 8.42682C32.1999 7.84581 31.7186 8.31594 31.6498 8.15627C31.581 7.99661 32.2558 8.2228 32.4062 7.46882C31.8604 7.27368 31.6971 7.73493 31.5982 7.62849C31.4994 7.52205 31.9464 7.33133 31.624 6.74146C31.0567 7.08296 31.3532 7.47326 31.2329 7.51317C31.1125 7.55309 31.2028 7.1007 30.5753 7.12288C30.5151 7.8192 31.1641 7.84138 31.0567 7.95226C30.9492 8.06314 30.7558 7.55309 30.283 7.82364C30.2751 7.94092 30.295 8.05843 30.341 8.16598C30.387 8.27353 30.4578 8.36788 30.5471 8.44084C30.6365 8.51381 30.7417 8.56319 30.8537 8.5847C30.9657 8.60622 31.0811 8.59922 31.1899 8.56431C31.1168 9.63319 30.167 9.45134 29.4707 10.64C30.9707 11.4339 31.6455 12.8176 32.5696 13.7712C32.8965 13.4064 33.1741 12.9976 33.3948 12.556C33.5074 12.6729 33.6413 12.7657 33.7889 12.829C33.9364 12.8923 34.0946 12.9249 34.2544 12.9249C34.4142 12.9249 34.5724 12.8923 34.7199 12.829C34.8674 12.7657 35.0013 12.6729 35.114 12.556C34.7701 12.1923 34.7572 11.9173 34.2329 11.4206L34.2028 11.4073ZM32.7802 11.6157C32.8916 11.8893 32.9335 12.1876 32.9019 12.4826C32.8703 12.7775 32.7663 13.0592 32.5996 13.3011C32.155 12.3055 31.4912 11.4307 30.6612 10.7464C30.528 10.6577 30.7343 10.498 31.1168 10.4448C32.2687 10.2186 33.6183 10.7242 34.263 10.8883C34.0167 11.0945 33.7185 11.2238 33.4034 11.2609C33.8047 11.5811 34.1581 11.9607 34.4521 12.3874C34.0008 12.5027 33.7429 12.2056 32.7673 11.6024" fill="#222220"/>
<path fill-rule="evenodd" clip-rule="evenodd" d="M23.1276 29.4318V28.1234C21.9115 28.6788 20.6116 29.0134 19.2852 29.1125L19.2122 29.5781C19.3497 29.5781 19.5216 29.6136 19.7494 29.6314C18.5686 29.7971 17.3715 29.7971 16.1907 29.6314C16.4185 29.6314 16.5904 29.6003 16.7279 29.5781L16.6548 29.1125C15.3371 29.0109 14.0461 28.6764 12.8382 28.1234V29.4274L11.5488 29.9906C12.643 30.5593 13.7966 30.9968 14.9872 31.2946L14.8325 31.8401C16.9232 32.4509 19.1372 32.4509 21.2279 31.8401L21.0732 31.2946C22.2637 30.9964 23.4173 30.5589 24.5116 29.9906L23.1276 29.4318ZM12.2365 30.0217L13.1305 29.6491V28.5847C13.9145 28.8819 14.721 29.1119 15.5417 29.2721L15.0345 30.9752C14.0728 30.7506 13.1354 30.4267 12.2365 30.0084V30.0217ZM17.9958 31.9864C17.0395 31.98 16.0873 31.8564 15.1591 31.6183L15.6964 29.8443C17.2201 30.1083 18.7758 30.1083 20.2995 29.8443L20.8368 31.6183C19.9072 31.8562 18.9536 31.9798 17.9958 31.9864ZM20.9485 30.9885L20.4371 29.2721C21.258 29.109 22.0645 28.8761 22.8483 28.5758V29.6402L23.7422 30.0128C22.8437 30.4319 21.9062 30.7559 20.9442 30.9797" fill="#222220"/>
<path fill-rule="evenodd" clip-rule="evenodd" d="M2.59614 12.5382C2.81753 12.978 3.09507 13.3853 3.42136 13.749C4.34543 12.7954 5.02451 11.4116 6.52022 10.6178C5.81105 9.41582 4.86119 9.6154 4.80102 8.54209C4.90955 8.57611 5.02447 8.58243 5.13589 8.5605C5.24731 8.53857 5.3519 8.48905 5.44068 8.4162C5.52946 8.34334 5.59977 8.24933 5.64557 8.14225C5.69136 8.03516 5.71128 7.9182 5.7036 7.80142C5.22652 7.53087 5.0589 8.06753 4.92996 7.93004C4.80102 7.79255 5.4758 7.79698 5.41133 7.10066C4.78382 7.10066 4.89987 7.54418 4.74944 7.49096C4.59901 7.43774 4.92566 7.04744 4.35832 6.71924C4.03597 7.33129 4.47437 7.522 4.38411 7.60627C4.29385 7.69054 4.12193 7.25146 3.57609 7.44661C3.72222 8.20059 4.43569 7.89012 4.33253 8.13406C4.22938 8.37799 3.78239 7.8236 3.59328 8.4046C3.64143 8.49784 3.70975 8.57837 3.79295 8.63995C3.87615 8.70152 3.97198 8.74248 4.073 8.75964C4.17403 8.7768 4.27752 8.7697 4.37545 8.73889C4.47339 8.70809 4.56312 8.6544 4.63769 8.58201C4.69786 9.56218 5.32107 9.64202 6.01305 10.325C4.16062 9.53114 1.91276 10.5069 1.06176 10.6311C1.19766 10.9691 1.45704 11.2384 1.78382 11.3806C1.23368 11.904 1.23368 12.1789 0.898438 12.5426C0.898438 12.5426 1.59901 13.3365 2.61764 12.5426L2.59614 12.5382ZM1.56892 12.3918C1.86347 11.9642 2.21841 11.5845 2.62193 11.2653C2.3067 11.2257 2.00871 11.095 1.76234 10.8883C2.40703 10.7109 3.7609 10.2097 4.91276 10.4448C5.29099 10.498 5.50589 10.6577 5.36835 10.7464C4.53191 11.4303 3.86218 12.3067 3.41276 13.3055C3.24873 13.0624 3.14628 12.7809 3.11475 12.4865C3.08322 12.1921 3.12361 11.8942 3.23225 11.6201C2.2609 12.2277 2.00302 12.5071 1.54744 12.4051" fill="#222220"/>
<path fill-rule="evenodd" clip-rule="evenodd" d="M17.1797 11.8108V12.3874C17.2542 12.3148 17.3432 12.2601 17.4406 12.2272C17.5379 12.1942 17.6411 12.1838 17.7427 12.1967V13.0261C17.7392 13.2315 17.686 13.4327 17.588 13.6115H18.3917C18.2939 13.4326 18.2407 13.2314 18.237 13.0261V12.1923C18.3387 12.179 18.4419 12.1893 18.5393 12.2223C18.6367 12.2553 18.7257 12.3101 18.8 12.383V11.8064H17.1797V11.8108Z" fill="#222220"/>
</svg>
