<svg width="20" height="13" viewBox="0 0 20 13" fill="none" xmlns="http://www.w3.org/2000/svg">
<path d="M10.8891 13C4.05594 13 0.15984 8.1289 0 0.0104086H3.43656C3.54645 5.96397 6.06394 8.48279 8.06194 9.0032V0.0104086H11.2887V5.14171C13.2567 4.92314 15.3347 2.58126 16.034 0H19.2507C18.9885 1.33619 18.4645 2.60166 17.7116 3.71737C16.9588 4.83307 15.9932 5.77503 14.8751 6.48439C16.1228 7.13139 17.2247 8.04663 18.1081 9.16973C18.9914 10.2928 19.6363 11.5983 20 13H16.4535C15.6943 10.5332 13.7962 8.61809 11.2887 8.35789V13H10.8991H10.8891Z" fill="#23272A"/>
</svg>
