<svg width="38" height="38" viewBox="0 0 38 38" fill="none" xmlns="http://www.w3.org/2000/svg">
<rect x="0.5" y="0.5" width="37" height="37" rx="4.5" stroke="#2E6DFE"/>
<path fill-rule="evenodd" clip-rule="evenodd" d="M20.0419 27.8281H20.0377C18.3711 27.8276 16.7335 27.4114 15.279 26.6218L10 28L11.4127 22.8645C10.5413 21.3615 10.0827 19.6566 10.0835 17.9099C10.0857 12.4456 14.5529 8 20.0418 8C22.7057 8.00114 25.206 9.03324 27.0861 10.9065C28.9662 12.7797 30.0011 15.2697 30 17.9177C29.9978 23.3807 25.5323 27.8259 20.0419 27.8281ZM15.5244 24.8276L15.8266 25.0061C17.0974 25.7566 18.5541 26.1537 20.0393 26.1543H20.0427C24.6046 26.1543 28.3176 22.459 28.3194 17.9171C28.3203 15.716 27.4602 13.6465 25.8975 12.0895C24.3348 10.5325 22.2567 9.67459 20.0459 9.67383C15.4805 9.67383 11.7674 13.3687 11.7656 17.9104C11.765 19.4668 12.2026 20.9826 13.0311 22.2941L13.2279 22.6058L12.3918 25.6454L15.5244 24.8276ZM24.7166 20.0513C24.8901 20.1347 25.0073 20.1911 25.0574 20.2742C25.1195 20.3775 25.1195 20.8733 24.9123 21.4518C24.7049 22.0302 23.7108 22.5582 23.2327 22.6292C22.8041 22.693 22.2616 22.7196 21.6655 22.5311C21.3041 22.417 20.8407 22.2646 20.2471 22.0095C17.9144 21.0071 16.338 18.7571 16.0401 18.3318C16.0192 18.302 16.0046 18.2812 15.9965 18.2704L15.9945 18.2677C15.8628 18.0928 14.9805 16.9213 14.9805 15.7087C14.9805 14.5681 15.5435 13.9702 15.8026 13.695C15.8204 13.6761 15.8367 13.6588 15.8513 13.6429C16.0794 13.395 16.349 13.333 16.5148 13.333C16.6807 13.333 16.8468 13.3345 16.9917 13.3418C17.0096 13.3427 17.0282 13.3426 17.0475 13.3425C17.1925 13.3416 17.3732 13.3406 17.5516 13.7669C17.6202 13.9309 17.7206 14.1741 17.8264 14.4307C18.0405 14.9494 18.2771 15.5226 18.3187 15.6055C18.3809 15.7295 18.4224 15.8741 18.3395 16.0394C18.327 16.0642 18.3155 16.0876 18.3045 16.1099C18.2422 16.2365 18.1964 16.3296 18.0907 16.4525C18.0491 16.5008 18.0061 16.5529 17.9631 16.6049C17.8775 16.7087 17.792 16.8124 17.7174 16.8863C17.5929 17.0098 17.4632 17.1438 17.6083 17.3917C17.7535 17.6396 18.2528 18.4505 18.9925 19.1071C19.7877 19.813 20.4788 20.1113 20.8291 20.2625C20.8975 20.292 20.9529 20.316 20.9935 20.3362C21.2423 20.4602 21.3874 20.4395 21.5326 20.2742C21.6777 20.109 22.1546 19.5511 22.3204 19.3033C22.4863 19.0554 22.6522 19.0967 22.8802 19.1793C23.1084 19.262 24.3317 19.861 24.5805 19.985C24.6291 20.0092 24.6745 20.031 24.7166 20.0513Z" fill="#2E6DFE"/>
</svg>
