<svg width="20" height="20" viewBox="0 0 20 20" fill="none" xmlns="http://www.w3.org/2000/svg">
<path fill-rule="evenodd" clip-rule="evenodd" d="M10.0419 19.8281H10.0377C8.37111 19.8276 6.73348 19.4114 5.27898 18.6218L0 20L1.41274 14.8645C0.541295 13.3615 0.0827425 11.6566 0.0834898 9.90989C0.0856743 4.44562 4.55292 0 10.0418 0C12.7057 0.00114422 15.206 1.03324 17.0861 2.90654C18.9662 4.77974 20.0011 7.26968 20 9.91771C19.9978 15.3807 15.5323 19.8259 10.0419 19.8281ZM5.52437 16.8276L5.82661 17.0061C7.0974 17.7566 8.5541 18.1537 10.0393 18.1543H10.0427C14.6046 18.1543 18.3176 14.459 18.3194 9.91705C18.3203 7.71603 17.4602 5.6465 15.8975 4.08949C14.3348 2.53248 12.2567 1.67459 10.0459 1.67383C5.48045 1.67383 1.76744 5.36874 1.76563 9.91038C1.76498 11.4668 2.20257 12.9826 3.0311 14.2941L3.2279 14.6058L2.39175 17.6454L5.52437 16.8276ZM14.7166 12.0513C14.8901 12.1347 15.0073 12.1911 15.0574 12.2742C15.1195 12.3775 15.1195 12.8733 14.9123 13.4518C14.7049 14.0302 13.7108 14.5582 13.2327 14.6292C12.8041 14.693 12.2616 14.7196 11.6655 14.5311C11.3041 14.417 10.8407 14.2646 10.2471 14.0095C7.9144 13.0071 6.33801 10.7571 6.04008 10.3318C6.01921 10.302 6.00461 10.2812 5.99647 10.2704L5.99446 10.2677C5.86279 10.0929 4.98047 8.92126 4.98047 7.70872C4.98047 6.56807 5.54347 5.97019 5.80262 5.69499C5.82037 5.67614 5.8367 5.6588 5.85133 5.6429C6.07939 5.39499 6.34898 5.33301 6.51485 5.33301C6.6807 5.33301 6.84676 5.33453 6.99174 5.34178C7.00962 5.34267 7.02823 5.34257 7.04747 5.34245C7.19247 5.34161 7.37324 5.34055 7.55157 5.76686C7.62018 5.93093 7.72057 6.17417 7.82645 6.43071C8.04056 6.94946 8.27711 7.5226 8.31873 7.60554C8.38095 7.7295 8.42241 7.87406 8.33947 8.0394C8.32702 8.06419 8.31551 8.08759 8.30451 8.10994C8.24221 8.23651 8.19639 8.32961 8.09066 8.45247C8.04909 8.50078 8.00612 8.55285 7.96315 8.60493C7.87755 8.70868 7.79195 8.81242 7.71742 8.88632C7.59285 9.0098 7.46318 9.14377 7.60833 9.39169C7.75347 9.6396 8.25284 10.4505 8.99254 11.1071C9.78768 11.813 10.4788 12.1113 10.8291 12.2625C10.8975 12.292 10.9529 12.316 10.9935 12.3362C11.2423 12.4602 11.3874 12.4395 11.5326 12.2742C11.6777 12.109 12.1546 11.5511 12.3204 11.3033C12.4863 11.0554 12.6522 11.0967 12.8802 11.1793C13.1084 11.262 14.3317 11.861 14.5805 11.985C14.6291 12.0092 14.6745 12.031 14.7166 12.0513Z" fill="#23272A"/>
</svg>
